<svg height="512.00001pt" viewBox="0 0 512.00001 512.00001" width="512.00001pt" xmlns="http://www.w3.org/2000/svg"><path d="m496 256c0 132.546875-107.453125 240-240 240s-240-107.453125-240-240 107.453125-240 240-240 240 107.453125 240 240zm0 0" fill="#ffc477"/><g fill="#3e3d42"><path d="m256 0c-141.386719 0-256 114.613281-256 256s114.613281 256 256 256 256-114.613281 256-256c-.167969-141.316406-114.683594-255.832031-256-256zm0 480c-123.710938 0-224-100.289062-224-224s100.289062-224 224-224 224 100.289062 224 224c-.132812 123.65625-100.34375 223.867188-224 224zm0 0"/><path d="m192 112h32v288h-32zm0 0"/><path d="m288 112h32v288h-32zm0 0"/></g></svg>