<svg height="512pt" viewBox="0 0 512 512" width="512pt" xmlns="http://www.w3.org/2000/svg"><path d="m256 0c-140.699219 0-256 115.300781-256 256s115.300781 256 256 256 256-115.300781 256-256-115.300781-256-256-256zm0 0" fill="#596c76"/><path d="m256 61c-107.402344 0-195 87.597656-195 195 0 107.398438 87.597656 195 195 195s195-87.601562 195-195c0-107.402344-87.597656-195-195-195zm0 0" fill="#fdbf00"/><path d="m512 256c0 140.699219-115.300781 256-256 256v-512c140.699219 0 256 115.300781 256 256zm0 0" fill="#474f54"/><path d="m451 256c0 107.398438-87.597656 195-195 195v-390c107.402344 0 195 87.597656 195 195zm0 0" fill="#ff9100"/><path d="m339.402344 243.398438-83.402344-55.5-51.597656-34.5c-4.800782-3-10.503906-3.300782-15.601563-.597657-4.800781 2.695313-7.800781 7.796875-7.800781 13.199219v180c0 5.398438 3 10.496094 7.800781 13.199219 4.796875 2.699219 10.800781 2.398437 15.601563-.601563l51.597656-34.5 83.402344-55.496094c4.195312-3 6.597656-7.503906 6.597656-12.601562 0-5.101562-2.402344-9.601562-6.597656-12.601562zm0 0" fill="#596c76"/><path d="m346 256c0 5.097656-2.402344 9.601562-6.597656 12.597656l-83.402344 55.5v-136.199218l83.402344 55.5c4.195312 3 6.597656 7.5 6.597656 12.601562zm0 0" fill="#474f54"/></svg>