<svg width="217" height="322" viewBox="0 0 217 322" fill="none" xmlns="http://www.w3.org/2000/svg">
<path d="M108.324 293.552C168.149 293.552 216.647 245.031 216.647 185.177C216.647 125.323 168.149 76.8024 108.324 76.8024C48.4982 76.8024 0 125.323 0 185.177C0 245.031 48.4982 293.552 108.324 293.552Z" fill="#2F2E41"/>
<path d="M166.548 196.918C166.548 200.413 166.412 203.854 166.142 207.24C166.106 207.791 166.06 208.342 166.006 208.893C162.233 250.617 138.979 283.039 110.445 284.882H110.436C110.12 284.909 109.804 284.927 109.488 284.936C108.947 284.963 108.414 284.972 107.872 284.972C105.963 284.975 104.056 284.836 102.167 284.557C102.059 284.538 101.951 284.52 101.842 284.502C74.1026 280.258 52.0767 247.014 49.4679 205.281C49.4499 204.992 49.4318 204.703 49.4228 204.413C49.2693 201.939 49.1941 199.44 49.1971 196.918C49.1971 148.284 75.4656 108.863 107.872 108.863C140.279 108.863 166.548 148.285 166.548 196.918Z" fill="#3F3D56"/>
<path d="M106.067 163.051C146.948 163.051 180.088 129.895 180.088 88.9946C180.088 48.0946 146.948 14.9386 106.067 14.9386C65.1862 14.9386 32.0458 48.0946 32.0458 88.9946C32.0458 129.895 65.1862 163.051 106.067 163.051Z" fill="#3F3D56"/>
<path d="M106.067 154.019C114.542 154.019 121.413 152.402 121.413 150.407C121.413 148.412 114.542 146.794 106.067 146.794C97.5918 146.794 90.7212 148.412 90.7212 150.407C90.7212 152.402 97.5918 154.019 106.067 154.019Z" fill="#2F2E41"/>
<path d="M82.5968 113.379C86.0867 113.379 88.9157 110.548 88.9157 107.057C88.9157 103.566 86.0867 100.735 82.5968 100.735C79.107 100.735 76.278 103.566 76.278 107.057C76.278 110.548 79.107 113.379 82.5968 113.379Z" fill="#2F2E41"/>
<path d="M129.537 113.379C133.027 113.379 135.856 110.548 135.856 107.057C135.856 103.566 133.027 100.735 129.537 100.735C126.047 100.735 123.218 103.566 123.218 107.057C123.218 110.548 126.047 113.379 129.537 113.379Z" fill="#2F2E41"/>
<path opacity="0.1" d="M106.97 256.072C106.975 260.189 106.673 264.301 106.067 268.373C105.267 273.89 103.85 279.301 101.842 284.502C74.1025 280.258 52.0767 247.014 49.4679 205.281C49.4498 204.992 49.4318 204.703 49.4227 204.414C54.7848 200.485 60.8419 198.272 67.251 198.272C86.2889 198.272 102.194 217.762 106.067 243.781C106.673 247.85 106.975 251.958 106.97 256.072Z" fill="black"/>
<path d="M106.97 264.2C106.975 268.317 106.673 272.429 106.067 276.501C103.052 296.731 92.7612 313.023 79.3741 319.255C76.8343 320.452 74.1341 321.273 71.3582 321.693C69.9989 321.9 68.6258 322.002 67.2509 322C63.3662 321.995 59.5245 321.186 55.9672 319.625C53.1102 318.388 50.4395 316.759 48.0325 314.784C35.8099 304.94 27.5322 285.974 27.5322 264.2C27.5322 232.275 45.3154 206.4 67.2509 206.4C86.2888 206.4 102.194 225.89 106.067 251.909C106.673 255.978 106.975 260.086 106.97 264.2Z" fill="#3F3D56"/>
<path opacity="0.1" d="M166.142 207.24C166.105 207.791 166.06 208.342 166.006 208.893C162.233 250.617 138.979 283.039 110.445 284.882H110.436C108.355 279.563 106.889 274.024 106.067 268.373C104.863 260.22 104.863 251.934 106.067 243.781C109.94 217.762 125.845 198.272 144.883 198.272C152.7 198.272 159.994 201.56 166.142 207.24Z" fill="black"/>
<path d="M184.602 264.2C184.602 288.133 174.609 308.661 160.373 317.439C157.99 318.927 155.414 320.081 152.718 320.871C147.658 322.361 142.279 322.376 137.21 320.916C134.178 320.043 131.296 318.715 128.662 316.979C117.297 309.573 108.766 294.617 106.067 276.501C104.863 268.348 104.863 260.062 106.067 251.909C109.94 225.89 125.845 206.4 144.883 206.4C166.819 206.4 184.602 232.275 184.602 264.2Z" fill="#3F3D56"/>
<path d="M106.067 104.348C83.6324 104.348 65.4456 119.592 65.4456 135.054C65.4456 144.121 71.7053 152.178 81.4032 157.294C85.0133 150.649 94.6906 145.891 106.067 145.891C117.443 145.891 127.121 150.649 130.731 157.294C140.429 152.178 146.688 144.121 146.688 135.054C146.688 119.592 128.502 104.348 106.067 104.348Z" fill="#53BBDC"/>
<path d="M104.262 145.891C110.244 145.891 115.094 141.848 115.094 136.86C115.094 131.872 110.244 127.829 104.262 127.829C98.279 127.829 93.4292 131.872 93.4292 136.86C93.4292 141.848 98.279 145.891 104.262 145.891Z" fill="#3F3D56"/>
<path d="M32.4971 104.799C40.9724 104.799 47.843 91.6581 47.843 75.4478C47.843 59.2374 40.9724 46.0963 32.4971 46.0963C24.0218 46.0963 17.1512 59.2374 17.1512 75.4478C17.1512 91.6581 24.0218 104.799 32.4971 104.799Z" fill="#53BBDC"/>
<path d="M175.123 104.799C183.599 104.799 190.469 91.6581 190.469 75.4478C190.469 59.2374 183.599 46.0963 175.123 46.0963C166.648 46.0963 159.778 59.2374 159.778 75.4478C159.778 91.6581 166.648 104.799 175.123 104.799Z" fill="#53BBDC"/>
<path d="M122.767 5.4558C120.727 5.45435 118.747 6.1479 117.153 7.42229C115.811 5.22208 113.869 3.45115 111.555 2.31793C109.242 1.18472 106.652 0.736379 104.092 1.02569C101.533 1.315 99.1085 2.32992 97.1057 3.95099C95.1029 5.57205 93.6046 7.7318 92.7873 10.176C91.8291 8.41141 90.3105 7.01663 88.4713 6.21215C86.6322 5.40767 84.5776 5.23939 82.6322 5.73391C80.6868 6.22843 78.9616 7.35754 77.7293 8.94276C76.4971 10.528 75.8281 12.4788 75.8281 14.487C75.8281 16.4952 76.4971 18.4461 77.7293 20.0313C78.9616 21.6165 80.6868 22.7456 82.6322 23.2401C84.5776 23.7346 86.6322 23.5664 88.4713 22.7619C90.3105 21.9574 91.8291 20.5626 92.7873 18.798C93.6046 21.2422 95.1029 23.402 97.1057 25.023C99.1085 26.6441 101.533 27.659 104.092 27.9483C106.652 28.2377 109.242 27.7893 111.555 26.6561C113.869 25.5229 115.811 23.752 117.153 21.5518C118.281 22.4489 119.607 23.0628 121.02 23.3422C122.434 23.6215 123.894 23.5582 125.278 23.1575C126.662 22.7569 127.93 22.0305 128.976 21.0391C130.022 20.0477 130.815 18.8202 131.29 17.4592C131.765 16.0982 131.907 14.6432 131.704 13.216C131.502 11.7888 130.961 10.4308 130.126 9.25568C129.292 8.08052 128.188 7.12233 126.908 6.46125C125.628 5.80016 124.208 5.4554 122.767 5.4558Z" fill="#3F3D56"/>
<path d="M55.9673 286.327V319.625C53.1103 318.388 50.4396 316.759 48.0326 314.784L55.9673 286.327Z" fill="#2F2E41"/>
<path d="M79.3742 319.254C76.8344 320.452 74.1342 321.273 71.3583 321.693L75.5829 291.213L79.3742 319.254Z" fill="#2F2E41"/>
<path d="M137.21 286.327V320.916C134.178 320.043 131.296 318.715 128.662 316.979L137.21 286.327Z" fill="#2F2E41"/>
<path d="M160.373 317.439C157.99 318.927 155.414 320.081 152.719 320.871L156.826 291.213L160.373 317.439Z" fill="#2F2E41"/>
<path d="M84.2367 107.876C85.3453 107.876 86.244 106.977 86.244 105.868C86.244 104.759 85.3453 103.86 84.2367 103.86C83.1282 103.86 82.2295 104.759 82.2295 105.868C82.2295 106.977 83.1282 107.876 84.2367 107.876Z" fill="white"/>
<path d="M131.407 107.876C132.516 107.876 133.414 106.977 133.414 105.868C133.414 104.759 132.516 103.86 131.407 103.86C130.299 103.86 129.4 104.759 129.4 105.868C129.4 106.977 130.299 107.876 131.407 107.876Z" fill="white"/>
</svg>
