<svg width="268" height="154" viewBox="0 0 268 154" fill="none" xmlns="http://www.w3.org/2000/svg">
<g clip-path="url(#clip0)">
<path d="M4.62231 59.1404H92.7693C93.9169 59.1404 95.0175 59.5946 95.8289 60.4032C96.6404 61.2118 97.0963 62.3084 97.0963 63.4519V70.3004H0.295288V63.4519C0.295289 62.3084 0.75117 61.2118 1.56264 60.4032C2.37412 59.5946 3.47471 59.1404 4.62231 59.1404Z" fill="#3F3D56"/>
<path d="M91.0962 58.3432C90.6607 58.3452 90.2285 58.4185 89.8169 58.5603C89.6757 57.9943 89.3314 57.4993 88.849 57.1689C88.3667 56.8385 87.7796 56.6955 87.1987 56.7669C86.6177 56.8383 86.0831 57.1192 85.6958 57.5564C85.3084 57.9937 85.0951 58.5571 85.0962 59.1404C85.0962 59.1523 85.0992 59.1634 85.0994 59.1752C84.7994 59.2036 84.5034 59.2647 84.2168 59.3574C84.1355 59.0356 83.9881 58.734 83.7839 58.4718C83.5797 58.2096 83.3231 57.9925 83.0304 57.8341C83.7993 57.4105 84.4075 56.7472 84.7617 55.946C86.7189 55.9143 88.2962 54.5044 88.2962 52.7633C88.2962 51.0023 86.6844 49.5747 84.6962 49.5747C84.2607 49.5766 83.8284 49.65 83.4168 49.7918C83.343 49.4782 83.2061 49.1829 83.0146 48.9235C82.823 48.6642 82.5807 48.4462 82.3022 48.2827C82.0237 48.1193 81.7149 48.0137 81.3944 47.9725C81.0739 47.9312 80.7483 47.9551 80.4373 48.0427C80.1263 48.1303 79.8363 48.2798 79.5849 48.4821C79.3335 48.6845 79.1258 48.9355 78.9744 49.22C78.8231 49.5045 78.7311 49.8167 78.7042 50.1376C78.6772 50.4585 78.7158 50.7815 78.8176 51.0872C78.7219 51.1535 78.6327 51.228 78.5433 51.3021C78.0908 50.914 77.5031 50.7191 76.9074 50.7595C76.5997 49.8791 75.991 49.1348 75.1878 48.6567C74.3847 48.1787 73.4383 47.9975 72.5145 48.1449C71.5908 48.2923 70.7485 48.7589 70.1354 49.4629C69.5222 50.167 69.1772 51.0635 69.1608 51.9956C68.8398 52.0209 68.5229 52.0839 68.2167 52.1832C68.1822 52.0483 68.1361 51.9166 68.0787 51.7898C68.3945 51.5122 68.6483 51.1715 68.8235 50.7899C68.9988 50.4084 69.0916 49.9943 69.096 49.5747C69.096 47.8137 67.4842 46.3862 65.496 46.3862C65.0605 46.3881 64.6282 46.4614 64.2166 46.6032C64.1428 46.2897 64.0059 45.9943 63.8144 45.735C63.6228 45.4756 63.3805 45.2576 63.102 45.0942C62.8235 44.9307 62.5147 44.8252 62.1942 44.7839C61.8737 44.7427 61.5481 44.7666 61.2371 44.8542C60.9261 44.9418 60.6361 45.0912 60.3847 45.2936C60.1333 45.4959 59.9256 45.7469 59.7742 46.0315C59.6229 46.316 59.5309 46.6281 59.504 46.949C59.477 47.2699 59.5156 47.593 59.6174 47.8986C59.1137 48.2472 58.6973 48.7068 58.4008 49.2417C58.1043 49.7766 57.9355 50.3724 57.9076 50.9829C57.8737 51.0129 57.835 51.0371 57.8029 51.0689C57.8627 50.8413 57.894 50.6071 57.8959 50.3719C57.8959 48.6108 56.2841 47.1833 54.2959 47.1833C53.8604 47.1852 53.4281 47.2585 53.0165 47.4003C52.9427 47.0868 52.8058 46.7915 52.6143 46.5321C52.4227 46.2728 52.1804 46.0548 51.9019 45.8913C51.6234 45.7278 51.3146 45.6223 50.9941 45.5811C50.6736 45.5398 50.348 45.5637 50.037 45.6513C49.726 45.7389 49.436 45.8884 49.1846 46.0907C48.9332 46.2931 48.7255 46.5441 48.5741 46.8286C48.4228 47.1131 48.3308 47.4253 48.3039 47.7462C48.2769 48.0671 48.3155 48.3901 48.4173 48.6957C47.8862 49.0614 47.4521 49.55 47.1523 50.1197C46.8524 50.6893 46.6958 51.3229 46.6958 51.9661C46.6958 52.6094 46.8524 53.243 47.1523 53.8126C47.4521 54.3822 47.8862 54.8708 48.4173 55.2365C48.2553 55.6997 48.2553 56.2039 48.4173 56.6671C48.0164 56.9459 47.6696 57.2948 47.3938 57.6969C47.2457 57.1615 46.9141 56.6946 46.4565 56.3775C45.999 56.0603 45.4444 55.9128 44.8891 55.9607C44.3338 56.0085 43.8128 56.2486 43.4166 56.6393C43.0205 57.03 42.7742 57.5466 42.7205 58.0994C42.3997 57.9121 42.0532 57.7726 41.6919 57.6853C42.34 57.259 42.8503 56.655 43.1612 55.946C45.1185 55.9143 46.6958 54.5044 46.6958 52.7633C46.6958 51.0023 45.084 49.5747 43.0957 49.5747C42.6602 49.5766 42.228 49.65 41.8164 49.7918C41.7425 49.4782 41.6057 49.1829 41.4141 48.9235C41.2226 48.6642 40.9802 48.4462 40.7018 48.2827C40.4233 48.1193 40.1145 48.0137 39.794 47.9725C39.4734 47.9312 39.1479 47.9551 38.8369 48.0427C38.5258 48.1303 38.2359 48.2798 37.9845 48.4821C37.733 48.6845 37.5254 48.9355 37.374 49.22C37.2226 49.5045 37.1307 49.8167 37.1037 50.1376C37.0768 50.4585 37.1154 50.7815 37.2172 51.0872C37.1659 51.1227 37.1196 51.1646 37.0701 51.2024C36.9453 51.1908 36.8239 51.169 36.6957 51.169C36.2602 51.1709 35.8279 51.2442 35.4163 51.386C35.4012 51.3259 35.3763 51.2701 35.3567 51.2118C35.4342 50.857 35.428 50.489 35.3387 50.1369C35.2494 49.7848 35.0793 49.4582 34.842 49.1826C34.6046 48.907 34.3063 48.69 33.9705 48.5487C33.6348 48.4074 33.2707 48.3455 32.9069 48.3681C32.6986 47.79 32.3589 47.2678 31.9144 46.8423C31.4699 46.4168 30.9327 46.0995 30.3447 45.9153C29.7567 45.731 29.1339 45.6848 28.525 45.7802C27.9161 45.8757 27.3376 46.1101 26.8347 46.4653C26.3319 46.8205 25.9183 47.2868 25.6264 47.8277C25.3344 48.3686 25.172 48.9695 25.1518 49.5834C25.1316 50.1972 25.2542 50.8074 25.51 51.3662C25.7658 51.925 26.1479 52.4173 26.6263 52.8045C26.351 52.8359 26.0797 52.8948 25.8162 52.9803C25.7216 52.5917 25.5299 52.2332 25.2588 51.9383C24.9877 51.6433 24.6462 51.4216 24.2659 51.2936C23.8857 51.1656 23.4791 51.1356 23.0841 51.2063C22.6891 51.2771 22.3184 51.4463 22.0067 51.6982C21.6502 51.2763 21.2041 50.9384 20.7007 50.7091C20.1972 50.4797 19.649 50.3645 19.0955 50.3719C18.66 50.3738 18.2277 50.4471 17.8161 50.5889C17.7423 50.2754 17.6054 49.98 17.4139 49.7207C17.2223 49.4613 16.98 49.2433 16.7015 49.0799C16.4231 48.9164 16.1142 48.8109 15.7937 48.7696C15.4732 48.7284 15.1476 48.7523 14.8366 48.8399C14.5256 48.9275 14.2356 49.0769 13.9842 49.2793C13.7328 49.4816 13.5251 49.7326 13.3738 50.0172C13.2224 50.3017 13.1304 50.6138 13.1035 50.9347C13.0765 51.2556 13.1151 51.5787 13.2169 51.8843C12.6859 52.2501 12.2519 52.7387 11.9521 53.3083C11.6523 53.8779 11.4955 54.5115 11.4954 55.1547C11.4954 55.167 11.499 55.1784 11.4991 55.1907C10.9318 55.105 10.3519 55.1674 9.81604 55.3717C9.74219 55.0582 9.60535 54.7629 9.41377 54.5035C9.2222 54.2442 8.97987 54.0262 8.70142 53.8627C8.42296 53.6993 8.11415 53.5937 7.79363 53.5525C7.47311 53.5112 7.14752 53.5351 6.83652 53.6227C6.52552 53.7103 6.23556 53.8598 5.98414 54.0622C5.73272 54.2645 5.52506 54.5155 5.37369 54.8C5.22232 55.0845 5.13038 55.3967 5.10342 55.7176C5.07646 56.0385 5.11504 56.3615 5.21683 56.6671C4.44529 57.1876 3.88123 57.961 3.62275 58.8529C3.36426 59.7448 3.42771 60.6988 3.80205 61.549C4.1764 62.3991 4.83795 63.0916 5.67167 63.506C6.50538 63.9205 7.45851 64.0306 8.36529 63.8173C8.50969 64.649 8.91623 65.4132 9.52595 65.999C10.1357 66.5849 10.9169 66.962 11.7562 67.0756C12.5955 67.1893 13.4494 67.0335 14.1938 66.6309C14.9383 66.2284 15.5347 65.5999 15.8966 64.8368C16.2243 65.5276 16.7449 66.1096 17.3962 66.513C18.0474 66.9164 18.8016 67.1241 19.5684 67.1112C20.3351 67.0983 21.0818 66.8654 21.7191 66.4403C22.3563 66.0152 22.8569 65.416 23.161 64.7145C23.6324 64.7079 24.0989 64.618 24.5387 64.4488C24.8031 65.2039 25.2901 65.8618 25.936 66.3365C26.582 66.8112 27.3566 67.0805 28.1587 67.1092C28.9608 67.1379 29.7529 66.9247 30.4313 66.4974C31.1098 66.0702 31.643 65.4487 31.9611 64.7145C32.5444 64.703 33.1177 64.5616 33.6391 64.3008C34.0041 64.9437 34.542 65.4723 35.1922 65.8271C35.8425 66.1819 36.5792 66.3487 37.3194 66.3089C38.0597 66.269 38.774 66.0241 39.3821 65.6015C39.9902 65.179 40.4678 64.5957 40.7612 63.9174C40.9759 63.9122 41.1898 63.8899 41.4009 63.8507C41.7002 64.5741 42.2068 65.1935 42.8574 65.6317C43.5079 66.0699 44.2737 66.3074 45.0589 66.3145C45.8441 66.3216 46.614 66.098 47.2725 65.6717C47.931 65.2454 48.4488 64.6352 48.7613 63.9174C49.0755 63.9086 49.3875 63.8627 49.6909 63.7808C50.4949 64.0041 51.3496 63.9645 52.1293 63.6678C52.909 63.3711 53.5726 62.8329 54.0226 62.1325C53.7712 63.1032 53.8963 64.1326 54.373 65.0154C54.8497 65.8983 55.6428 66.5696 56.5943 66.8954C57.5457 67.2213 58.5855 67.1778 59.5062 66.7735C60.4269 66.3693 61.1607 65.6341 61.5614 64.7145C62.1447 64.703 62.718 64.5616 63.2394 64.3008C63.6044 64.9437 64.1423 65.4723 64.7925 65.8271C65.4428 66.1819 66.1795 66.3487 66.9197 66.3089C67.66 66.269 68.3744 66.0241 68.9824 65.6015C69.5905 65.179 70.0681 64.5957 70.3615 63.9174C70.9448 63.9058 71.5181 63.7645 72.0395 63.5037C72.3208 64.0032 72.708 64.4356 73.174 64.771C73.6401 65.1063 74.1738 65.3365 74.7382 65.4455C75.3025 65.5544 75.8839 65.5396 76.442 65.4021C77 65.2645 77.5213 65.0075 77.9695 64.649C78.1084 65.4115 78.4683 66.1168 79.0049 66.6779C79.5414 67.239 80.2311 67.6313 80.9888 67.8064C81.7464 67.9814 82.539 67.9316 83.2686 67.6631C83.9982 67.3946 84.633 66.919 85.0945 66.2952C85.5746 66.6619 86.1324 66.9144 86.7254 67.0336C87.3183 67.1528 87.9308 67.1355 88.516 66.9831C89.1012 66.8306 89.6438 66.547 90.1023 66.1538C90.5608 65.7607 90.9232 65.2684 91.1618 64.7145C93.119 64.6828 94.6963 63.2729 94.6963 61.5318C94.6963 59.7708 93.0845 58.3432 91.0962 58.3432ZM19.593 56.6981C19.5888 56.7173 19.5858 56.737 19.5819 56.7564C19.5527 56.7553 19.525 56.749 19.4955 56.749C19.3759 56.752 19.2568 56.764 19.139 56.7848C19.1455 56.7704 19.1547 56.7576 19.161 56.7431C19.3057 56.736 19.4499 56.7209 19.593 56.6981ZM53.0165 55.3717C53.0048 55.3253 52.9849 55.2827 52.9706 55.2374C53.5814 54.8154 54.0628 54.2328 54.3613 53.5546C54.8874 53.5518 55.407 53.4386 55.8862 53.2224C56.3655 53.0061 56.7936 52.6917 57.1428 52.2996C57.1121 52.4523 57.0964 52.6076 57.0959 52.7633C57.0992 53.0065 57.1402 53.2478 57.2174 53.4786C56.5305 53.9558 56.0105 54.635 55.7302 55.4212C54.8603 55.0837 53.8982 55.0662 53.0165 55.3717V55.3717ZM76.977 55.669C76.9754 55.6201 76.9815 55.5698 76.9783 55.5212C77.0803 55.5209 77.1821 55.514 77.2832 55.5006C77.4384 56.0164 77.6977 56.4951 78.0453 56.9073C77.9698 56.9284 77.8903 56.9412 77.8167 56.966C77.6875 56.4534 77.3924 55.9976 76.977 55.669Z" fill="#F9A825"/>
<path d="M8.35398 63.126C7.21922 63.1259 6.09634 63.3563 5.05386 63.8029C4.01138 64.2495 3.07116 64.9031 2.29058 65.7238C1.51 66.5445 0.90543 67.5151 0.513758 68.5763C0.122086 69.6375 -0.0484728 70.7671 0.0124905 71.8961L5.42973 146.122C5.54396 148.249 6.47263 150.252 8.02446 151.718C9.57628 153.183 11.6331 154 13.7712 154H83.6204C85.7585 154 87.8153 153.183 89.3672 151.718C90.919 150.252 91.8476 148.249 91.9619 146.122L97.3791 71.8961C97.4401 70.7671 97.2695 69.6375 96.8779 68.5763C96.4862 67.5151 95.8816 66.5445 95.101 65.7238C94.3204 64.9031 93.3802 64.2495 92.3378 63.8029C91.2953 63.3563 90.1724 63.1259 89.0376 63.126H8.35398Z" fill="#3F3D56"/>
<path d="M17.0954 63.126H12.2953V154H17.0954V63.126Z" fill="#53BBDC"/>
<path d="M30.6956 63.126H25.8955V154H30.6956V63.126Z" fill="#53BBDC"/>
<path d="M44.2957 63.126H39.4957V154H44.2957V63.126Z" fill="#53BBDC"/>
<path d="M57.8959 63.126H53.0958V154H57.8959V63.126Z" fill="#53BBDC"/>
<path d="M71.496 63.126H66.6959V154H71.496V63.126Z" fill="#53BBDC"/>
<path d="M85.0961 63.126H80.2961V154H85.0961V63.126Z" fill="#53BBDC"/>
<path d="M163.408 25.8711L161.315 20.7928L133.415 32.206C132.784 32.4648 132.243 32.9047 131.863 33.4701C131.483 34.0354 131.28 34.7005 131.28 35.3811V65.4169H136.79V36.7669L163.408 25.8711Z" fill="#3F3D56"/>
<path d="M159.823 15.274H153.814V34.2355H159.823V15.274Z" fill="#53BBDC"/>
<path d="M150.309 19.2653H144.301V38.2267H150.309V19.2653Z" fill="#53BBDC"/>
<path d="M141.043 35.4828L136.787 36.7301L135.035 16.5214H141.043V35.4828Z" fill="#53BBDC"/>
<path d="M144.548 37.7278H125.518V43.7146H144.548V37.7278Z" fill="#53BBDC"/>
<path d="M144.551 45.9628H125.522V51.9496H144.551V45.9628Z" fill="#53BBDC"/>
<path d="M144.548 54.1978H125.518V60.1846H144.548V54.1978Z" fill="#53BBDC"/>
<path d="M153.814 154H117.007L107.991 64.176H161.828L153.814 154Z" fill="#3F3D56"/>
<path d="M165.834 62.6791H104.236V68.666H165.834V62.6791Z" fill="#3F3D56"/>
<path d="M228.502 41.3136C239.935 41.3136 249.203 32.0784 249.203 20.6861C249.203 9.29384 239.935 0.0585938 228.502 0.0585938C217.068 0.0585938 207.8 9.29384 207.8 20.6861C207.8 32.0784 217.068 41.3136 228.502 41.3136Z" fill="#3AD29F"/>
<path d="M242.209 20.686L221.489 30.8304V20.686V10.5416L242.209 20.686Z" fill="url(#paint0_linear)"/>
<path d="M240.963 20.686L222.731 29.6139V20.686V11.7581L240.963 20.686Z" fill="white"/>
<path opacity="0.2" d="M209.494 23.0543C209.497 18.8092 210.814 14.6684 213.266 11.1966C215.718 7.72478 219.185 5.09099 223.194 3.65436C227.203 2.21773 231.559 2.04819 235.668 3.16887C239.778 4.28954 243.44 6.64587 246.156 9.91655C244.677 7.49206 242.711 5.39769 240.383 3.76433C238.054 2.13097 235.412 0.993722 232.623 0.42367C229.833 -0.146383 226.955 -0.13699 224.169 0.451259C221.383 1.03951 218.749 2.19397 216.432 3.84249C214.114 5.49102 212.162 7.59818 210.698 10.0323C209.235 12.4664 208.291 15.1751 207.926 17.9891C207.56 20.8032 207.781 23.6621 208.575 26.3872C209.369 29.1123 210.718 31.645 212.538 33.827C210.542 30.5863 209.488 26.8569 209.494 23.0543Z" fill="white"/>
<path d="M224.866 127.747C224.624 127.747 224.393 127.842 224.222 128.012C224.052 128.182 223.955 128.413 223.955 128.653V153.093C223.955 153.334 224.052 153.564 224.222 153.734C224.393 153.904 224.624 154 224.866 154H267.089C267.331 154 267.562 153.904 267.733 153.734C267.903 153.564 268 153.334 268 153.093V128.653C268 128.413 267.903 128.182 267.733 128.012C267.562 127.842 267.331 127.747 267.089 127.747H224.866Z" fill="#3F3D56"/>
<path d="M229.584 129.902C229.135 129.902 228.703 130.081 228.385 130.398C228.067 130.714 227.889 131.144 227.888 131.592V150.155C227.889 150.603 228.067 151.032 228.385 151.349C228.703 151.666 229.135 151.844 229.584 151.845H262.371C262.82 151.844 263.252 151.666 263.57 151.349C263.888 151.032 264.066 150.603 264.067 150.155V131.592C264.066 131.144 263.888 130.714 263.57 130.398C263.252 130.081 262.82 129.902 262.371 129.902L229.584 129.902Z" fill="#FF6584"/>
<path d="M225.34 135.797H203.346V140.873H225.34V135.797Z" fill="#3F3D56"/>
<path d="M165.074 127.747C164.833 127.747 164.602 127.843 164.431 128.013C164.261 128.183 164.165 128.413 164.164 128.653V153.093C164.165 153.334 164.261 153.564 164.431 153.734C164.602 153.904 164.833 154 165.074 154H207.298C207.54 154 207.771 153.904 207.941 153.734C208.112 153.564 208.208 153.334 208.208 153.093V128.653C208.208 128.413 208.112 128.183 207.941 128.013C207.771 127.843 207.54 127.747 207.298 127.747H165.074Z" fill="#3F3D56"/>
<path d="M169.793 129.902C169.344 129.902 168.912 130.08 168.594 130.397C168.276 130.714 168.097 131.144 168.096 131.592V150.155C168.097 150.603 168.276 151.032 168.594 151.349C168.912 151.666 169.344 151.844 169.793 151.845H202.579C203.029 151.844 203.46 151.666 203.778 151.349C204.097 151.032 204.276 150.603 204.276 150.155V131.592C204.276 131.144 204.097 130.714 203.778 130.397C203.46 130.08 203.029 129.902 202.579 129.902L169.793 129.902Z" fill="#53BBDC"/>
</g>
<defs>
<linearGradient id="paint0_linear" x1="231.849" y1="30.8304" x2="231.849" y2="10.5417" gradientUnits="userSpaceOnUse">
<stop stop-opacity="0.12"/>
<stop offset="0.55" stop-opacity="0.09"/>
<stop offset="1" stop-opacity="0.02"/>
</linearGradient>
<clipPath id="clip0">
<rect width="268" height="154" fill="white"/>
</clipPath>
</defs>
</svg>
