<svg width="672" height="523" viewBox="0 0 672 523" fill="none" xmlns="http://www.w3.org/2000/svg">
<path opacity="0.1" d="M545.096 69.3189V349.081C545.099 358.185 543.308 367.2 539.827 375.611C536.346 384.023 531.243 391.665 524.809 398.103C518.375 404.54 510.736 409.646 502.329 413.129C493.921 416.611 484.911 418.403 475.812 418.4H196.188C180.533 418.421 165.334 413.118 153.087 403.361C148.018 399.322 143.535 394.597 139.765 389.322C131.398 377.574 126.902 363.507 126.904 349.081V69.3189C126.904 67.4637 126.976 65.6283 127.121 63.8126C127.397 60.2664 127.949 56.7471 128.772 53.2868C132.381 38.1127 140.998 24.5993 153.231 14.9302C165.464 5.26106 180.598 0.00100967 196.188 0H475.812C491.402 0.00100967 506.536 5.26106 518.769 14.9302C531.002 24.5993 539.619 38.1127 543.229 53.2868C544.051 56.7471 544.603 60.2664 544.879 63.8126C545.024 65.6283 545.096 67.4637 545.096 69.3189Z" fill="#F36E21"/>
<path opacity="0.1" d="M341.26 220.384H545.096V230.909H341.26V303.932H545.096V314.458H341.26V418.4H330.74V314.458H126.904V303.932H330.74V230.909H126.904V220.384H330.74V147.361H126.904V136.835H330.74V63.8126H127.121C127.397 60.2664 127.949 56.7471 128.772 53.2868H330.74V0H341.26V53.2868H543.229C544.051 56.7471 544.603 60.2664 544.879 63.8126H341.26V136.835H545.096V147.361H341.26V220.384Z" fill="#F36E21"/>
<path opacity="0.1" d="M336 523C521.568 523 672 499.387 672 470.259C672 441.131 521.568 417.518 336 417.518C150.432 417.518 0 441.131 0 470.259C0 499.387 150.432 523 336 523Z" fill="#F36E21"/>
<path d="M593.556 451.3C602.744 451.3 610.192 449.865 610.192 448.096C610.192 446.326 602.744 444.892 593.556 444.892C584.369 444.892 576.921 446.326 576.921 448.096C576.921 449.865 584.369 451.3 593.556 451.3Z" fill="#F36E21"/>
<path d="M593.28 449.28C594.351 449.28 595.22 448.143 595.22 446.741C595.22 445.338 594.351 444.201 593.28 444.201C592.209 444.201 591.34 445.338 591.34 446.741C591.34 448.143 592.209 449.28 593.28 449.28Z" fill="#3F3D56"/>
<path d="M593.28 446.175C594.351 446.175 595.22 445.038 595.22 443.636C595.22 442.233 594.351 441.096 593.28 441.096C592.209 441.096 591.34 442.233 591.34 443.636C591.34 445.038 592.209 446.175 593.28 446.175Z" fill="#3F3D56"/>
<path d="M593.28 443.076C594.351 443.076 595.22 441.939 595.22 440.537C595.22 439.135 594.351 437.998 593.28 437.998C592.209 437.998 591.34 439.135 591.34 440.537C591.34 441.939 592.209 443.076 593.28 443.076Z" fill="#3F3D56"/>
<path d="M593.28 439.978C594.351 439.978 595.22 438.841 595.22 437.439C595.22 436.036 594.351 434.899 593.28 434.899C592.209 434.899 591.34 436.036 591.34 437.439C591.34 438.841 592.209 439.978 593.28 439.978Z" fill="#3F3D56"/>
<path d="M593.28 436.873C594.351 436.873 595.22 435.736 595.22 434.333C595.22 432.931 594.351 431.794 593.28 431.794C592.209 431.794 591.34 432.931 591.34 434.333C591.34 435.736 592.209 436.873 593.28 436.873Z" fill="#3F3D56"/>
<path d="M593.28 433.774C594.351 433.774 595.22 432.637 595.22 431.235C595.22 429.832 594.351 428.696 593.28 428.696C592.209 428.696 591.34 429.832 591.34 431.235C591.34 432.637 592.209 433.774 593.28 433.774Z" fill="#3F3D56"/>
<path d="M593.28 430.676C594.351 430.676 595.22 429.539 595.22 428.136C595.22 426.734 594.351 425.597 593.28 425.597C592.209 425.597 591.34 426.734 591.34 428.136C591.34 429.539 592.209 430.676 593.28 430.676Z" fill="#3F3D56"/>
<path d="M600.526 406.92C600.792 406.583 601.034 406.227 601.249 405.855L596.16 405.019L601.664 405.058C602.191 403.909 602.478 402.664 602.509 401.399C602.539 400.135 602.312 398.877 601.841 397.704L594.457 401.539L601.269 396.526C600.633 395.417 599.776 394.451 598.75 393.688C597.724 392.926 596.552 392.384 595.306 392.095C594.061 391.807 592.77 391.779 591.514 392.014C590.257 392.248 589.063 392.739 588.005 393.456C586.947 394.174 586.048 395.102 585.366 396.183C584.683 397.264 584.231 398.474 584.037 399.738C583.843 401.002 583.912 402.292 584.24 403.528C584.568 404.764 585.147 405.919 585.942 406.92C585.531 407.445 585.176 408.012 584.883 408.611L591.459 412.045L584.416 409.677C583.92 411.139 583.796 412.702 584.057 414.225C584.317 415.747 584.954 417.18 585.909 418.393C584.832 419.763 584.163 421.407 583.976 423.139C583.79 424.871 584.095 426.621 584.855 428.188C585.616 429.755 586.802 431.076 588.278 432C589.754 432.925 591.46 433.415 593.201 433.415C594.942 433.415 596.648 432.925 598.124 432C599.6 431.076 600.786 429.755 601.547 428.188C602.307 426.621 602.612 424.871 602.426 423.139C602.239 421.407 601.57 419.763 600.493 418.393C601.779 416.758 602.479 414.738 602.479 412.657C602.479 410.576 601.779 408.555 600.493 406.92H600.526Z" fill="#F36E21"/>
<path opacity="0.1" d="M583.956 412.657C583.95 414.737 584.645 416.758 585.929 418.393C584.852 419.763 584.183 421.407 583.996 423.139C583.81 424.871 584.115 426.621 584.875 428.188C585.636 429.755 586.822 431.076 588.298 432C589.774 432.925 591.48 433.415 593.221 433.415C594.962 433.415 596.668 432.925 598.144 432C599.62 431.076 600.806 429.755 601.566 428.188C602.327 426.621 602.632 424.871 602.445 423.139C602.259 421.407 601.589 419.763 600.513 418.393C601.769 416.815 583.956 411.617 583.956 412.657Z" fill="black"/>
<path d="M532.274 366.429H135.781V457.543H532.274V366.429Z" fill="#46455B"/>
<path d="M138.411 272.026L100.932 300.314L129.863 326.628L146.301 300.314L168.658 272.026H138.411Z" fill="#46455B"/>
<path d="M525.699 306.235L520.438 300.314L486.904 281.236L517.808 280.578L565.808 300.314L546.082 312.813L525.699 306.235Z" fill="#46455B"/>
<path d="M135.781 307.55L168.658 272.026V353.601L146.301 372.021L132.493 352.943L135.781 307.55Z" fill="#46455B"/>
<path d="M526.356 322.023L520.438 300.314L509.26 285.841L486.904 281.236V372.021H532.274L526.356 322.023Z" fill="#46455B"/>
<path d="M175.923 247.685H482.926C485.638 247.685 488.238 248.763 490.156 250.681C492.073 252.6 493.151 255.202 493.151 257.915V351.627H165.699V257.915C165.699 255.202 166.776 252.6 168.693 250.681C170.611 248.763 173.212 247.685 175.923 247.685Z" fill="#46455B"/>
<path d="M146.301 372.021L168.658 344.391H486.904L520.438 372.021H146.301Z" fill="#46455B"/>
<path opacity="0.05" d="M146.301 372.021L168.658 344.391H486.904L520.438 372.021H146.301Z" fill="black"/>
<path d="M146.301 300.314H100.932V457.543H146.301V300.314Z" fill="#46455B"/>
<path opacity="0.05" d="M146.301 300.314H100.932V457.543H146.301V300.314Z" fill="white"/>
<path d="M565.808 300.314H520.438V457.543H565.808V300.314Z" fill="#46455B"/>
<path opacity="0.05" d="M565.808 300.314H520.438V457.543H565.808V300.314Z" fill="white"/>
<path d="M289.315 271.039C318.367 271.039 341.918 239.966 341.918 201.635C341.918 163.304 318.367 132.23 289.315 132.23C260.263 132.23 236.712 163.304 236.712 201.635C236.712 239.966 260.263 271.039 289.315 271.039Z" fill="#2F2E41"/>
<path d="M312.329 171.702H253.808V253.277H312.329V171.702Z" fill="#2F2E41"/>
<path opacity="0.1" d="M312.329 171.702H253.808V253.277H312.329V171.702Z" fill="black"/>
<path d="M258.056 219.542C256.225 221.773 253.861 223.505 251.183 224.579C248.505 225.653 245.599 226.034 242.735 225.686C242.472 229.778 245.247 233.37 247.871 236.521L268.405 261.171C268.486 261.366 268.619 261.536 268.79 261.66C268.96 261.785 269.162 261.86 269.373 261.878C269.583 261.896 269.794 261.855 269.983 261.761C270.172 261.666 270.332 261.521 270.444 261.342L301.808 231.574C298.678 232.89 294.976 230.804 293.26 227.87C291.544 224.936 291.373 221.41 291.215 218.002C290.987 212.915 290.768 207.832 290.558 202.753C290.505 201.621 290.393 200.372 289.558 199.608C288.909 199.119 288.133 198.825 287.323 198.76C282.371 197.911 266.939 193.497 264.079 198.707C262.764 201.082 263.356 205.713 262.764 208.397C261.876 212.377 260.62 216.344 258.056 219.542Z" fill="#FBBEBE"/>
<path opacity="0.1" d="M258.056 219.542C256.225 221.773 253.861 223.505 251.183 224.579C248.505 225.653 245.599 226.034 242.735 225.686C242.472 229.778 245.247 233.37 247.871 236.521L268.405 261.171C268.486 261.366 268.619 261.536 268.79 261.66C268.96 261.785 269.162 261.86 269.373 261.878C269.583 261.896 269.794 261.855 269.983 261.761C270.172 261.666 270.332 261.521 270.444 261.342L301.808 231.574C298.678 232.89 294.976 230.804 293.26 227.87C291.544 224.936 291.373 221.41 291.215 218.002C290.987 212.915 290.768 207.832 290.558 202.753C290.505 201.621 290.393 200.372 289.558 199.608C288.909 199.119 288.133 198.825 287.323 198.76C282.371 197.911 266.939 193.497 264.079 198.707C262.764 201.082 263.356 205.713 262.764 208.397C261.876 212.377 260.62 216.344 258.056 219.542Z" fill="black"/>
<path d="M280.767 214.463C297.835 214.463 311.671 200.62 311.671 183.543C311.671 166.467 297.835 152.624 280.767 152.624C263.699 152.624 249.863 166.467 249.863 183.543C249.863 200.62 263.699 214.463 280.767 214.463Z" fill="#FBBEBE"/>
<path d="M269.589 245.803L264.631 230.166C262.659 223.903 259.858 216.805 253.611 214.785C249.666 213.522 245.412 214.68 241.302 214.331C233.306 213.641 225.521 207.279 218.045 210.193C208.839 213.772 208.918 227.916 200.745 233.469C200.745 246.685 205.013 258.961 207.321 271.967C209.629 284.973 210.293 299.011 204.27 310.78C201.718 315.767 198.069 320.109 195.347 325.003C190.884 333.074 189.059 342.34 190.126 351.502C225.028 351.941 259.934 352.046 294.845 351.818C294.523 347.292 292.504 342.831 292.175 338.305C291.978 336.939 292.086 335.546 292.491 334.227C293.26 332.253 295.22 331.075 296.896 329.793C299.143 328.061 301.045 325.923 302.505 323.49C304.833 319.616 305.938 315.149 307.016 310.754L320.088 257.467C321.646 251.119 323.158 244.192 320.449 238.245C317.477 231.712 310.35 228.317 303.768 225.456C299.822 223.726 295.285 221.976 291.275 223.568C287.987 224.883 285.922 228.035 283.844 230.89C279.825 236.513 275.025 241.535 269.589 245.803Z" fill="#F86D70"/>
<path opacity="0.1" d="M200.397 238.159C199.371 242.001 199.943 246.106 199.187 250.001C197.918 256.52 193.164 261.704 189.981 267.519C185.049 276.55 183.8 287.14 186.496 297.071C187.299 299.972 188.725 303.077 191.54 304.143C193.552 304.912 195.801 304.432 197.951 304.623C200.791 304.873 203.744 306.281 206.367 305.162C209.609 303.781 210.253 299.564 210.608 296.057C211.426 287.926 213.176 279.915 215.822 272.184C218.453 264.447 222.062 256.77 222.01 248.593C221.97 242.83 214.593 248.132 209.78 244.718C204.348 240.889 202.179 231.521 200.397 238.159Z" fill="black"/>
<path d="M199.082 237.501C198.056 241.343 198.628 245.448 197.872 249.343C196.603 255.862 191.849 261.046 188.666 266.862C183.734 275.892 182.485 286.482 185.181 296.413C185.984 299.314 187.41 302.419 190.225 303.485C192.237 304.254 194.485 303.774 196.636 303.965C199.476 304.215 202.428 305.623 205.052 304.504C208.294 303.123 208.938 298.906 209.293 295.4C210.111 287.268 211.861 279.258 214.507 271.526C217.138 263.789 220.747 256.112 220.695 247.935C220.655 242.172 218.124 235.804 213.311 232.39C207.879 228.561 200.864 230.863 199.082 237.501Z" fill="#F86D70"/>
<path d="M244.077 201.325C248.022 199.115 251.908 196.72 255.971 194.668C262.323 191.49 269.464 189.01 274.461 184.142C274.719 183.896 275.035 183.721 275.379 183.632C275.723 183.543 276.085 183.544 276.429 183.634C276.773 183.724 277.088 183.901 277.345 184.148C277.601 184.395 277.79 184.703 277.894 185.043C280.044 192.05 282.588 198.929 285.514 205.648C288.039 211.437 290.854 217.121 292.747 223.147C294.062 227.337 294.884 231.699 296.522 235.732C298.659 240.994 302.071 245.678 305.457 250.27C306.7 251.968 307.982 253.691 309.725 254.875C312.171 256.54 315.82 257.605 316.077 260.553C312.901 262.849 308.581 262.092 304.668 262.059C300.756 262.026 296.778 262.835 292.912 263.789C288.395 264.82 283.99 266.292 279.761 268.184C275.645 270.125 271.871 272.677 268.057 275.216L233.096 298.682C230.525 295.742 230.624 291.446 230.071 287.551C229.6 284.749 228.923 281.985 228.046 279.282L224.561 267.539C222.904 261.96 221.273 256.388 219.406 250.869C217.867 246.264 216.158 241.613 213.146 237.81C209.517 233.205 204.296 230.219 199.765 226.515C198.161 225.199 196.576 223.699 195.978 221.713C195.779 221.064 195.724 220.38 195.814 219.708C195.905 219.035 196.14 218.391 196.504 217.818C197.464 216.43 198.838 216.634 200.364 216.39C204.085 215.798 207.776 215.051 211.437 214.147C218.698 212.344 225.795 209.937 232.655 206.95C236.552 205.266 240.359 203.391 244.077 201.325Z" fill="#BBBDC8"/>
<path opacity="0.1" d="M245.51 206.194C248.975 204.273 252.342 202.167 255.886 200.391C261.436 197.615 267.656 195.457 272.015 191.227C272.239 191.011 272.515 190.856 272.816 190.777C273.117 190.698 273.433 190.698 273.734 190.777C274.035 190.855 274.311 191.01 274.535 191.226C274.759 191.442 274.924 191.712 275.014 192.01C276.888 198.122 279.108 204.122 281.661 209.983C283.864 215.035 286.317 219.996 287.954 225.252C289.085 228.903 289.815 232.686 291.242 236.232C293.102 240.837 296.088 244.909 299.033 248.915C300.039 250.453 301.297 251.81 302.755 252.928C304.899 254.382 308.081 255.31 308.298 257.888C305.53 259.862 301.762 259.204 298.35 259.204C294.882 259.274 291.438 259.782 288.099 260.717C284.161 261.615 280.322 262.899 276.638 264.552C273.083 266.343 269.669 268.401 266.426 270.71L235.923 291.15C233.681 288.584 233.773 284.815 233.293 281.433C232.884 278.981 232.295 276.562 231.531 274.197L228.487 263.954C227.04 259.086 225.593 254.224 223.989 249.408C222.674 245.389 221.162 241.337 218.532 238.014C215.362 234.008 210.812 231.396 206.854 228.146C205.46 227.008 204.072 225.693 203.566 223.962C203.393 223.397 203.344 222.801 203.423 222.215C203.503 221.628 203.709 221.067 204.026 220.568C204.861 219.351 206.065 219.528 207.393 219.318C210.641 218.805 213.861 218.147 217.052 217.344C223.387 215.776 229.579 213.677 235.562 211.068C238.959 209.603 242.275 207.979 245.51 206.194Z" fill="black"/>
<path d="M232.747 232.975C234.2 232.975 235.378 231.797 235.378 230.344C235.378 228.89 234.2 227.712 232.747 227.712C231.295 227.712 230.117 228.89 230.117 230.344C230.117 231.797 231.295 232.975 232.747 232.975Z" fill="#BBBDC8"/>
<path d="M260.791 219.982C262.244 219.982 263.421 218.804 263.421 217.351C263.421 215.898 262.244 214.719 260.791 214.719C259.339 214.719 258.161 215.898 258.161 217.351C258.161 218.804 259.339 219.982 260.791 219.982Z" fill="#BBBDC8"/>
<path d="M246.01 261.632C247.462 261.632 248.64 260.453 248.64 259C248.64 257.547 247.462 256.369 246.01 256.369C244.557 256.369 243.38 257.547 243.38 259C243.38 260.453 244.557 261.632 246.01 261.632Z" fill="#BBBDC8"/>
<path d="M274.054 248.639C275.506 248.639 276.684 247.461 276.684 246.007C276.684 244.554 275.506 243.376 274.054 243.376C272.601 243.376 271.424 244.554 271.424 246.007C271.424 247.461 272.601 248.639 274.054 248.639Z" fill="#BBBDC8"/>
<path d="M205.341 275.539C207.972 274.782 210.74 273.953 212.673 272.013C214.172 270.5 215.007 268.467 216.059 266.612C218.157 262.908 221.477 259.625 225.653 258.809C229.828 257.994 234.733 260.408 235.627 264.572C236.206 267.283 235.075 270.039 233.951 272.578C232.267 276.381 230.367 280.367 226.895 282.663C223.858 284.67 219.985 285.111 216.999 287.196C214.369 289.038 212.712 291.952 210.424 294.222C207.433 297.169 203.476 298.934 199.285 299.189C198.649 299.264 198.004 299.176 197.412 298.932C196.831 298.588 196.343 298.107 195.991 297.531C194.058 294.9 192.099 292.189 191.073 289.078C187.502 278.229 197.609 277.756 205.341 275.539Z" fill="#FBBEBE"/>
<path d="M275.395 276.986C274.507 271.684 274.389 265.901 271.115 261.638C268.373 258.079 263.816 256.277 259.331 255.974C258.016 255.882 256.471 256.013 255.709 257.092C255.274 257.854 255.101 258.736 255.215 259.605C255.493 266.343 258.005 272.796 262.356 277.947C263.993 279.868 265.894 281.617 267.038 283.867C268.037 285.808 268.405 288.025 269.333 289.999C270.542 292.571 272.62 294.604 274.211 296.972C276.467 300.365 277.637 304.364 277.565 308.438C279.301 305.603 279.09 302.057 279.255 298.735C279.472 294.058 282.746 291.499 280.622 287.683C278.499 283.867 276.164 281.624 275.395 276.986Z" fill="#FBBEBE"/>
<path opacity="0.1" d="M299.665 271.703C298.001 276.045 297.146 280.69 295.187 284.907C294.67 286.226 293.784 287.368 292.636 288.196C290.531 289.512 287.75 288.696 285.659 287.387C283.568 286.078 281.714 284.275 279.432 283.407C278.407 293.4 270.108 302.195 260.193 303.8C266.111 309.241 272.344 315.287 273.679 323.207C273.929 324.661 274.014 326.207 274.79 327.464C276.039 329.47 278.676 330.128 281.043 330.095C287.06 330.049 292.576 326.872 297.6 323.517C299.296 322.398 301.013 321.201 302.144 319.517C303.275 317.833 303.761 315.695 304.188 313.655C307.095 299.836 309.999 286.01 312.901 272.177C313.69 268.421 313.558 261.039 307.733 261.783C303.781 262.362 300.888 268.526 299.665 271.703Z" fill="black"/>
<path d="M300.98 271.703C299.316 276.045 298.461 280.69 296.502 284.907C295.985 286.226 295.099 287.368 293.951 288.196C291.847 289.512 289.065 288.696 286.974 287.387C284.883 286.078 283.029 284.275 280.747 283.407C279.722 293.4 271.424 302.195 261.508 303.8C267.426 309.241 273.659 315.287 274.994 323.207C275.244 324.661 275.329 326.207 276.105 327.464C277.355 329.47 279.991 330.128 282.358 330.095C288.375 330.049 293.891 326.872 298.915 323.517C300.611 322.398 302.328 321.201 303.459 319.517C304.59 317.833 305.076 315.695 305.504 313.655C308.41 299.836 311.314 286.01 314.216 272.177C315.005 268.421 314.873 261.039 309.048 261.783C305.096 262.362 302.203 268.526 300.98 271.703Z" fill="#F86D70"/>
<path d="M205.059 297.36C204.822 298.564 203.632 299.294 202.553 299.873C200.469 300.998 198.201 302.162 195.853 301.847C193.506 301.531 191.54 299.794 190.001 297.952C189.235 297.076 188.573 296.113 188.028 295.084C185.655 290.393 185.398 270.434 195.209 276.947C199.259 279.644 196.978 284.249 197.484 288.216C197.705 290.568 198.644 292.796 200.173 294.597C200.469 294.939 204.907 298.136 205.059 297.36Z" fill="#F86D70"/>
<path d="M288.986 176.307C305.146 176.307 318.247 170.122 318.247 162.492C318.247 154.862 305.146 148.677 288.986 148.677C272.826 148.677 259.726 154.862 259.726 162.492C259.726 170.122 272.826 176.307 288.986 176.307Z" fill="#2F2E41"/>
<path opacity="0.1" d="M290.301 171.702C274.468 171.702 261.587 165.781 261.067 158.347C260.227 159.567 259.77 161.01 259.752 162.492C259.752 170.123 272.85 176.307 289.013 176.307C305.175 176.307 318.273 170.123 318.273 162.492C318.273 162.334 318.273 162.183 318.273 162.031C314.492 167.636 303.406 171.702 290.301 171.702Z" fill="black"/>
<path d="M417.534 269.723C457.48 269.723 489.863 240.27 489.863 203.937C489.863 167.604 457.48 138.151 417.534 138.151C377.588 138.151 345.205 167.604 345.205 203.937C345.205 240.27 377.588 269.723 417.534 269.723Z" fill="#2F2E41"/>
<path opacity="0.1" d="M417.534 252.619C380.903 252.619 350.63 227.844 345.863 195.714C345.428 198.654 345.208 201.623 345.205 204.595C345.205 240.929 377.589 270.381 417.534 270.381C457.479 270.381 489.863 240.929 489.863 204.595C489.861 201.623 489.641 198.654 489.205 195.714C484.438 227.844 454.165 252.619 417.534 252.619Z" fill="black"/>
<path d="M416.219 253.277C435.466 253.277 451.069 232.217 451.069 206.24C451.069 180.262 435.466 159.203 416.219 159.203C396.972 159.203 381.37 180.262 381.37 206.24C381.37 232.217 396.972 253.277 416.219 253.277Z" fill="#2F2E41"/>
<path opacity="0.1" d="M416.219 253.277C435.466 253.277 451.069 232.217 451.069 206.24C451.069 180.262 435.466 159.203 416.219 159.203C396.972 159.203 381.37 180.262 381.37 206.24C381.37 232.217 396.972 253.277 416.219 253.277Z" fill="black"/>
<path d="M400.195 230.081C398.88 233.33 396.25 236.784 392.305 237.034C397.565 241.356 402.891 245.724 409.177 248.876C415.463 252.027 422.906 253.875 430.06 252.744C435.11 251.948 439.7 249.731 443.987 247.303C451.285 243.172 458.453 237.745 460.3 230.39C454.82 230.665 449.328 230.562 443.862 230.081C441.028 229.837 438.128 229.462 435.669 228.225C434.159 227.428 432.825 226.336 431.744 225.014C430.663 223.692 429.858 222.167 429.376 220.528C428.397 217.423 428.416 214.154 428.594 210.937C428.693 209.062 428.765 206.99 427.325 205.555C425.885 204.121 423.505 203.931 421.341 203.885C416.99 203.796 412.639 204.053 408.329 204.654C406.068 204.889 403.828 205.296 401.629 205.871C398.775 206.74 399.044 206.404 399.735 208.792C401.878 216.108 403.187 222.686 400.195 230.081Z" fill="#A0616A"/>
<path opacity="0.1" d="M400.195 230.081C398.88 233.33 396.25 236.784 392.305 237.034C397.565 241.356 402.891 245.724 409.177 248.876C415.463 252.027 422.906 253.875 430.06 252.744C435.11 251.948 439.7 249.731 443.987 247.303C451.285 243.172 458.453 237.745 460.3 230.39C454.82 230.665 449.328 230.562 443.862 230.081C441.028 229.837 438.128 229.462 435.669 228.225C434.159 227.428 432.825 226.336 431.744 225.014C430.663 223.692 429.858 222.167 429.376 220.528C428.397 217.423 428.416 214.154 428.594 210.937C428.693 209.062 428.765 206.99 427.325 205.555C425.885 204.121 423.505 203.931 421.341 203.885C416.99 203.796 412.639 204.053 408.329 204.654C406.068 204.889 403.828 205.296 401.629 205.871C398.775 206.74 399.044 206.404 399.735 208.792C401.878 216.108 403.187 222.686 400.195 230.081Z" fill="black"/>
<path d="M415.233 223.344C432.301 223.344 446.137 209.501 446.137 192.425C446.137 175.348 432.301 161.505 415.233 161.505C398.165 161.505 384.329 175.348 384.329 192.425C384.329 209.501 398.165 223.344 415.233 223.344Z" fill="#A0616A"/>
<path d="M404.581 232.804C402.562 230.383 400.484 227.91 397.795 226.265C393.39 223.561 387.932 223.39 382.77 223.305C377.175 223.206 371.093 223.258 366.667 226.686C364.695 228.232 363.182 230.35 361.742 232.429L342.996 259.401C342.266 260.454 341.497 261.645 341.681 262.914C341.891 263.828 342.345 264.667 342.996 265.342L363.616 291.104C364.793 292.571 366.01 294.117 366.404 295.959C366.799 297.801 366.312 299.735 365.681 301.524C363.189 308.623 358.448 315.339 358.882 322.819C359.191 327.701 361.742 332.187 364.866 335.977C372.033 344.614 382.35 350.232 393.14 353.298C403.93 356.364 415.259 357.035 426.483 357.107C447.643 357.245 469.881 354.936 487.358 342.996L473.622 330.049C470.906 327.484 468.059 324.721 467.119 321.102C466.461 318.668 466.777 316.103 467.073 313.609C467.625 309.05 468.178 304.458 469.65 300.116C473.747 288.018 484.274 279.407 491.296 268.743C492.178 267.427 493.032 265.914 492.934 264.316C492.855 262.967 492.105 261.763 491.375 260.632C488.167 255.652 484.839 250.698 482.512 245.251C480.776 241.198 479.599 236.889 477.449 233.041C475.299 229.192 471.886 225.732 467.586 224.923C462.049 223.883 456.651 227.35 451.029 227.587C446.913 227.765 442.619 226.219 438.773 227.686C434.209 229.429 432.197 234.574 429.639 238.751C427.752 241.863 422.124 250.376 417.712 248.284C415.312 247.139 413.109 243.021 411.386 241.001L404.581 232.804Z" fill="#F98A8D"/>
<path d="M429.199 253.718C428.157 253.13 426.948 252.912 425.766 253.099C425.183 253.211 424.653 253.513 424.259 253.958C423.866 254.403 423.63 254.966 423.59 255.56L421.69 255.448C421.47 255.424 421.248 255.435 421.032 255.481C420.758 255.54 420.518 255.706 420.365 255.942C420.213 256.178 420.161 256.466 420.22 256.74C420.279 257.015 420.445 257.255 420.682 257.408C420.918 257.56 421.205 257.612 421.479 257.553C420.547 257.923 419.715 258.509 419.053 259.263C418.557 260.01 418.375 260.922 418.548 261.801C418.72 262.681 419.233 263.457 419.974 263.96C420.751 264.408 421.665 264.556 422.544 264.376C423.423 264.197 424.207 263.703 424.747 262.987C424.636 263.38 424.668 263.799 424.836 264.171C425.005 264.544 425.299 264.844 425.668 265.02C429.232 266.947 431.046 264.329 431.533 261.296C432.085 257.967 432.795 255.494 429.199 253.718Z" fill="#FFE9B3"/>
<path opacity="0.15" d="M429.199 253.718C428.157 253.13 426.948 252.912 425.766 253.099C425.183 253.211 424.653 253.513 424.259 253.958C423.866 254.403 423.63 254.966 423.59 255.56L421.69 255.448C421.47 255.424 421.248 255.435 421.032 255.481C420.758 255.54 420.518 255.706 420.365 255.942C420.213 256.178 420.161 256.466 420.22 256.74C420.279 257.015 420.445 257.255 420.682 257.408C420.918 257.56 421.205 257.612 421.479 257.553C420.547 257.923 419.715 258.509 419.053 259.263C418.557 260.01 418.375 260.922 418.548 261.801C418.72 262.681 419.233 263.457 419.974 263.96C420.751 264.408 421.665 264.556 422.544 264.376C423.423 264.197 424.207 263.703 424.747 262.987C424.636 263.38 424.668 263.799 424.836 264.171C425.005 264.544 425.299 264.844 425.668 265.02C429.232 266.947 431.046 264.329 431.533 261.296C432.085 257.967 432.795 255.494 429.199 253.718Z" fill="black"/>
<path d="M438.904 251.481C437.863 250.892 436.652 250.677 435.472 250.869C434.889 250.979 434.36 251.28 433.967 251.724C433.574 252.168 433.34 252.731 433.302 253.323L431.402 253.211C431.182 253.188 430.96 253.199 430.744 253.244C430.487 253.325 430.269 253.498 430.132 253.73C429.995 253.962 429.948 254.236 430.001 254.5C430.071 254.761 430.236 254.986 430.464 255.131C430.691 255.276 430.965 255.33 431.231 255.283C430.299 255.655 429.468 256.241 428.804 256.994C428.31 257.74 428.129 258.652 428.302 259.531C428.474 260.41 428.985 261.186 429.725 261.691C430.503 262.139 431.418 262.288 432.298 262.11C433.178 261.932 433.963 261.439 434.505 260.724C434.394 261.115 434.425 261.533 434.592 261.904C434.759 262.275 435.052 262.574 435.419 262.75C438.99 264.684 440.798 262.092 441.291 259.033C441.797 255.731 442.521 253.257 438.904 251.481Z" fill="#FFE9B3"/>
<path d="M446.821 252.612C445.781 252.025 444.573 251.81 443.395 252C442.811 252.109 442.28 252.409 441.886 252.854C441.492 253.298 441.257 253.861 441.219 254.454L439.318 254.342C439.099 254.319 438.877 254.33 438.661 254.375C438.404 254.456 438.186 254.629 438.049 254.861C437.911 255.093 437.865 255.368 437.918 255.632C437.988 255.893 438.153 256.118 438.38 256.263C438.608 256.408 438.882 256.462 439.147 256.415C438.214 256.783 437.382 257.369 436.721 258.125C436.225 258.872 436.043 259.784 436.216 260.663C436.388 261.543 436.9 262.319 437.642 262.822C438.418 263.272 439.332 263.422 440.211 263.243C441.091 263.065 441.875 262.572 442.415 261.855C442.305 262.247 442.336 262.666 442.505 263.037C442.673 263.408 442.968 263.707 443.336 263.882C446.9 265.816 448.708 263.191 449.201 260.165C449.714 256.895 450.411 254.389 446.821 252.612Z" fill="#FFE9B3"/>
<path opacity="0.15" d="M446.821 252.612C445.781 252.025 444.573 251.81 443.395 252C442.811 252.109 442.28 252.409 441.886 252.854C441.492 253.298 441.257 253.861 441.219 254.454L439.318 254.342C439.099 254.319 438.877 254.33 438.661 254.375C438.404 254.456 438.186 254.629 438.049 254.861C437.911 255.093 437.865 255.368 437.918 255.632C437.988 255.893 438.153 256.118 438.38 256.263C438.608 256.408 438.882 256.462 439.147 256.415C438.214 256.783 437.382 257.369 436.721 258.125C436.225 258.872 436.043 259.784 436.216 260.663C436.388 261.543 436.9 262.319 437.642 262.822C438.418 263.272 439.332 263.422 440.211 263.243C441.091 263.065 441.875 262.572 442.415 261.855C442.305 262.247 442.336 262.666 442.505 263.037C442.673 263.408 442.968 263.707 443.336 263.882C446.9 265.816 448.708 263.191 449.201 260.165C449.714 256.895 450.411 254.389 446.821 252.612Z" fill="black"/>
<path d="M466.192 257.224V327.891C466.19 328.341 466.011 328.772 465.693 329.09C465.375 329.408 464.945 329.587 464.495 329.589H409.368C408.918 329.587 408.488 329.408 408.17 329.09C407.852 328.772 407.673 328.341 407.671 327.891V257.224C407.671 256.942 407.741 256.664 407.874 256.416C408.008 256.168 408.201 255.957 408.437 255.802C408.672 255.647 408.943 255.554 409.223 255.53C409.504 255.506 409.787 255.552 410.045 255.665C411.448 256.27 412.848 256.829 414.247 257.342C416.219 258.066 418.192 258.695 420.164 259.23C422.137 259.763 424.11 260.204 426.082 260.546C428.055 260.888 430.027 261.151 432 261.309C433.973 261.467 435.945 261.533 437.918 261.493C439.89 261.454 441.863 261.342 443.836 261.125C445.808 260.908 447.781 260.586 449.753 260.171C451.726 259.757 453.699 259.27 455.671 258.671C457.203 258.204 458.742 257.684 460.274 257.105C461.458 256.665 462.634 256.184 463.818 255.671C464.076 255.559 464.358 255.513 464.638 255.536C464.918 255.56 465.188 255.653 465.424 255.807C465.659 255.961 465.852 256.171 465.987 256.418C466.121 256.666 466.191 256.942 466.192 257.224Z" fill="#BBBDC8"/>
<path d="M420.164 259.23V329.622H414.247V257.342C416.219 258.066 418.192 258.695 420.164 259.23Z" fill="white"/>
<path d="M432 261.303V329.589H426.082V260.513C428.055 260.895 430.027 261.145 432 261.303Z" fill="white"/>
<path d="M443.836 261.118V329.589H437.918V261.5C439.89 261.465 441.863 261.338 443.836 261.118Z" fill="white"/>
<path d="M455.671 258.665V329.589H449.753V260.184C451.726 259.772 453.699 259.265 455.671 258.665Z" fill="white"/>
<path opacity="0.1" d="M466.192 257.224V327.891C466.19 328.341 466.011 328.772 465.693 329.09C465.375 329.408 464.945 329.587 464.495 329.589H460.274V257.099C461.457 256.658 462.634 256.178 463.818 255.665C464.076 255.552 464.359 255.506 464.64 255.53C464.92 255.554 465.191 255.647 465.426 255.802C465.662 255.957 465.855 256.168 465.989 256.416C466.122 256.664 466.192 256.942 466.192 257.224Z" fill="black"/>
<path d="M423.064 250.349C422.025 249.762 420.817 249.547 419.638 249.737C419.055 249.846 418.523 250.146 418.129 250.591C417.735 251.035 417.5 251.598 417.462 252.191L415.562 252.079C415.342 252.056 415.12 252.067 414.904 252.112C414.647 252.193 414.429 252.366 414.292 252.598C414.155 252.83 414.108 253.105 414.161 253.369C414.231 253.63 414.396 253.855 414.624 253.999C414.851 254.144 415.125 254.199 415.391 254.152C414.457 254.52 413.625 255.106 412.964 255.862C412.468 256.608 412.287 257.52 412.459 258.4C412.631 259.28 413.144 260.056 413.885 260.559C414.662 261.007 415.576 261.156 416.454 260.978C417.333 260.8 418.117 260.307 418.659 259.592C418.548 259.984 418.58 260.403 418.748 260.774C418.917 261.145 419.211 261.444 419.579 261.618C423.143 263.546 424.951 260.928 425.444 257.901C425.957 254.599 426.667 252.125 423.064 250.349Z" fill="#FFE9B3"/>
<path d="M432.927 239.166C431.888 238.579 430.68 238.363 429.501 238.554C428.917 238.662 428.386 238.963 427.992 239.407C427.598 239.851 427.363 240.415 427.325 241.008L425.425 240.896C425.205 240.872 424.983 240.883 424.767 240.929C424.51 241.009 424.292 241.182 424.155 241.414C424.018 241.646 423.971 241.921 424.024 242.185C424.094 242.446 424.259 242.671 424.487 242.816C424.714 242.961 424.988 243.015 425.254 242.968C424.32 243.336 423.488 243.923 422.827 244.678C422.331 245.425 422.15 246.337 422.322 247.216C422.494 248.096 423.007 248.872 423.748 249.376C424.525 249.824 425.439 249.973 426.317 249.795C427.196 249.616 427.98 249.124 428.522 248.409C428.411 248.801 428.443 249.219 428.611 249.59C428.78 249.961 429.074 250.26 429.442 250.435C433.006 252.362 434.814 249.744 435.307 246.718C435.82 243.415 436.53 240.942 432.927 239.166Z" fill="#FFE9B3"/>
<path d="M439.627 254.356C440.407 253.448 440.855 252.302 440.897 251.106C440.908 250.51 440.721 249.927 440.363 249.45C440.006 248.973 439.499 248.63 438.924 248.474L439.404 246.632C439.474 246.42 439.507 246.198 439.502 245.974C439.492 245.697 439.372 245.435 439.168 245.246C438.965 245.058 438.695 244.957 438.418 244.968C438.14 244.978 437.879 245.099 437.69 245.302C437.501 245.506 437.401 245.776 437.412 246.053C437.232 245.067 436.819 244.138 436.208 243.343C435.571 242.713 434.711 242.36 433.815 242.36C432.919 242.36 432.059 242.713 431.421 243.343C430.828 244.016 430.5 244.883 430.5 245.78C430.5 246.678 430.828 247.545 431.421 248.218C431.057 248.033 430.64 247.984 430.243 248.078C429.846 248.172 429.495 248.403 429.252 248.731C426.667 251.849 428.883 254.139 431.757 255.211C434.9 256.369 437.188 257.553 439.627 254.356Z" fill="#FFE9B3"/>
<path d="M448.175 254.356C448.955 253.448 449.403 252.302 449.444 251.106C449.456 250.51 449.268 249.927 448.911 249.45C448.554 248.973 448.047 248.63 447.472 248.474L447.952 246.632C448.022 246.42 448.055 246.198 448.05 245.974C448.04 245.697 447.92 245.435 447.716 245.246C447.513 245.058 447.243 244.957 446.965 244.968C446.688 244.978 446.426 245.099 446.238 245.302C446.049 245.506 445.949 245.776 445.959 246.053C445.78 245.067 445.367 244.138 444.756 243.343C444.119 242.713 443.259 242.36 442.363 242.36C441.467 242.36 440.607 242.713 439.969 243.343C439.376 244.016 439.048 244.883 439.048 245.78C439.048 246.678 439.376 247.545 439.969 248.218C439.605 248.033 439.188 247.984 438.791 248.078C438.394 248.172 438.042 248.403 437.799 248.731C435.215 251.849 437.431 254.139 440.305 255.211C443.448 256.369 445.736 257.553 448.175 254.356Z" fill="#FFE9B3"/>
<path d="M453.528 259.98C454.13 258.946 454.362 257.737 454.185 256.553C454.082 255.967 453.787 255.433 453.346 255.034C452.906 254.635 452.345 254.394 451.752 254.349L451.89 252.454C451.924 252.236 451.924 252.015 451.89 251.797C451.829 251.526 451.662 251.291 451.427 251.144C451.192 250.997 450.908 250.948 450.638 251.01C450.368 251.072 450.133 251.239 449.986 251.474C449.838 251.709 449.79 251.993 449.852 252.264C449.491 251.327 448.914 250.489 448.169 249.816C447.428 249.312 446.518 249.121 445.637 249.283C444.755 249.446 443.974 249.949 443.461 250.685C443.004 251.458 442.846 252.372 443.016 253.254C443.185 254.136 443.671 254.925 444.381 255.474C443.99 255.36 443.571 255.387 443.198 255.552C442.825 255.717 442.522 256.009 442.343 256.375C440.37 259.921 443.001 261.763 445.999 262.296C449.254 262.816 451.726 263.559 453.528 259.98Z" fill="#FFE9B3"/>
<path d="M427.226 249.455C427.829 248.42 428.061 247.211 427.884 246.027C427.78 245.442 427.485 244.907 427.045 244.508C426.604 244.109 426.043 243.868 425.451 243.823L425.589 241.929C425.622 241.711 425.622 241.489 425.589 241.271C425.527 241 425.36 240.766 425.125 240.618C424.891 240.471 424.607 240.423 424.336 240.485C424.066 240.547 423.831 240.713 423.684 240.948C423.537 241.183 423.489 241.467 423.551 241.738C423.189 240.801 422.613 239.963 421.867 239.291C421.126 238.787 420.216 238.595 419.335 238.758C418.454 238.92 417.672 239.424 417.159 240.159C416.703 240.932 416.545 241.846 416.714 242.728C416.884 243.61 417.369 244.399 418.08 244.948C417.689 244.834 417.269 244.862 416.896 245.027C416.523 245.191 416.221 245.483 416.042 245.849C414.069 249.395 416.699 251.237 419.698 251.77C422.952 252.29 425.425 253.033 427.226 249.455Z" fill="#FFE9B3"/>
<path d="M429.856 245.823C428.815 245.236 427.605 245.018 426.424 245.205C425.841 245.317 425.311 245.619 424.917 246.064C424.523 246.509 424.288 247.072 424.248 247.665L422.347 247.553C422.128 247.53 421.906 247.541 421.69 247.586C421.415 247.646 421.175 247.812 421.023 248.048C420.871 248.284 420.819 248.571 420.878 248.846C420.937 249.121 421.103 249.361 421.339 249.513C421.575 249.666 421.862 249.718 422.137 249.658C421.204 250.028 420.373 250.615 419.711 251.369C419.215 252.115 419.033 253.027 419.205 253.907C419.378 254.787 419.89 255.562 420.631 256.066C421.409 256.513 422.323 256.661 423.202 256.482C424.081 256.303 424.864 255.809 425.405 255.092C425.294 255.485 425.325 255.905 425.494 256.277C425.662 256.649 425.957 256.95 426.325 257.125C429.889 259.053 431.704 256.434 432.191 253.402C432.743 250.073 433.453 247.599 429.856 245.823Z" fill="#FFE9B3"/>
<path opacity="0.15" d="M429.856 245.823C428.815 245.236 427.605 245.018 426.424 245.205C425.841 245.317 425.311 245.619 424.917 246.064C424.523 246.509 424.288 247.072 424.248 247.665L422.347 247.553C422.128 247.53 421.906 247.541 421.69 247.586C421.415 247.646 421.175 247.812 421.023 248.048C420.871 248.284 420.819 248.571 420.878 248.846C420.937 249.121 421.103 249.361 421.339 249.513C421.575 249.666 421.862 249.718 422.137 249.658C421.204 250.028 420.373 250.615 419.711 251.369C419.215 252.115 419.033 253.027 419.205 253.907C419.378 254.787 419.89 255.562 420.631 256.066C421.409 256.513 422.323 256.661 423.202 256.482C424.081 256.303 424.864 255.809 425.405 255.092C425.294 255.485 425.325 255.905 425.494 256.277C425.662 256.649 425.957 256.95 426.325 257.125C429.889 259.053 431.704 256.434 432.191 253.402C432.743 250.073 433.453 247.599 429.856 245.823Z" fill="black"/>
<path d="M458.137 248.086C457.096 247.498 455.885 247.282 454.705 247.474C454.121 247.584 453.591 247.885 453.197 248.329C452.803 248.773 452.568 249.336 452.528 249.928L450.635 249.816C450.415 249.794 450.193 249.805 449.977 249.849C449.72 249.93 449.502 250.103 449.365 250.335C449.228 250.567 449.181 250.842 449.234 251.106C449.304 251.367 449.469 251.592 449.697 251.737C449.924 251.881 450.198 251.936 450.464 251.889C449.532 252.26 448.701 252.846 448.037 253.599C447.543 254.346 447.362 255.258 447.534 256.137C447.707 257.016 448.218 257.792 448.958 258.296C449.735 258.744 450.648 258.893 451.527 258.715C452.406 258.537 453.19 258.044 453.731 257.329C453.621 257.721 453.653 258.14 453.821 258.511C453.99 258.882 454.284 259.181 454.652 259.355C458.216 261.283 460.031 258.665 460.517 255.632C461.024 252.336 461.734 249.862 458.137 248.086Z" fill="#FFE9B3"/>
<path opacity="0.15" d="M458.137 248.086C457.096 247.498 455.885 247.282 454.705 247.474C454.121 247.584 453.591 247.885 453.197 248.329C452.803 248.773 452.568 249.336 452.528 249.928L450.635 249.816C450.415 249.794 450.193 249.805 449.977 249.849C449.72 249.93 449.502 250.103 449.365 250.335C449.228 250.567 449.181 250.842 449.234 251.106C449.304 251.367 449.469 251.592 449.697 251.737C449.924 251.881 450.198 251.936 450.464 251.889C449.532 252.26 448.701 252.846 448.037 253.599C447.543 254.346 447.362 255.258 447.534 256.137C447.707 257.016 448.218 257.792 448.958 258.296C449.735 258.744 450.648 258.893 451.527 258.715C452.406 258.537 453.19 258.044 453.731 257.329C453.621 257.721 453.653 258.14 453.821 258.511C453.99 258.882 454.284 259.181 454.652 259.355C458.216 261.283 460.031 258.665 460.517 255.632C461.024 252.336 461.734 249.862 458.137 248.086Z" fill="black"/>
<path d="M441.041 236.903C440 236.314 438.789 236.098 437.609 236.291C437.025 236.4 436.495 236.701 436.101 237.145C435.707 237.589 435.472 238.152 435.432 238.745L433.539 238.633C433.319 238.61 433.097 238.621 432.881 238.666C432.624 238.746 432.406 238.919 432.269 239.151C432.132 239.383 432.085 239.658 432.138 239.922C432.208 240.183 432.373 240.408 432.601 240.553C432.828 240.698 433.102 240.752 433.368 240.705C432.436 241.077 431.605 241.662 430.941 242.415C430.447 243.162 430.266 244.074 430.439 244.953C430.611 245.832 431.122 246.608 431.862 247.113C432.639 247.561 433.553 247.71 434.431 247.531C435.31 247.353 436.094 246.861 436.636 246.145C436.525 246.538 436.557 246.956 436.725 247.327C436.894 247.698 437.188 247.997 437.556 248.172C441.12 250.099 442.935 247.481 443.421 244.448C443.928 241.152 444.638 238.679 441.041 236.903Z" fill="#FFE9B3"/>
<path opacity="0.15" d="M441.041 236.903C440 236.314 438.789 236.098 437.609 236.291C437.025 236.4 436.495 236.701 436.101 237.145C435.707 237.589 435.472 238.152 435.432 238.745L433.539 238.633C433.319 238.61 433.097 238.621 432.881 238.666C432.624 238.746 432.406 238.919 432.269 239.151C432.132 239.383 432.085 239.658 432.138 239.922C432.208 240.183 432.373 240.408 432.601 240.553C432.828 240.698 433.102 240.752 433.368 240.705C432.436 241.077 431.605 241.662 430.941 242.415C430.447 243.162 430.266 244.074 430.439 244.953C430.611 245.832 431.122 246.608 431.862 247.113C432.639 247.561 433.553 247.71 434.431 247.531C435.31 247.353 436.094 246.861 436.636 246.145C436.525 246.538 436.557 246.956 436.725 247.327C436.894 247.698 437.188 247.997 437.556 248.172C441.12 250.099 442.935 247.481 443.421 244.448C443.928 241.152 444.638 238.679 441.041 236.903Z" fill="black"/>
<path d="M427.89 232.955C426.849 232.367 425.639 232.151 424.458 232.344C423.875 232.453 423.344 232.754 422.95 233.198C422.556 233.642 422.321 234.205 422.282 234.797L420.388 234.686C420.168 234.663 419.947 234.674 419.731 234.718C419.474 234.799 419.255 234.972 419.118 235.204C418.981 235.436 418.935 235.711 418.988 235.975C419.057 236.236 419.222 236.461 419.45 236.606C419.678 236.751 419.951 236.805 420.217 236.758C419.285 237.129 418.454 237.715 417.791 238.468C417.296 239.215 417.116 240.127 417.288 241.006C417.46 241.885 417.972 242.661 418.711 243.165C419.488 243.613 420.402 243.762 421.281 243.584C422.16 243.406 422.943 242.913 423.485 242.198C423.374 242.59 423.406 243.009 423.575 243.38C423.743 243.751 424.037 244.05 424.406 244.225C427.969 246.152 429.784 243.534 430.271 240.501C430.777 237.205 431.487 234.732 427.89 232.955Z" fill="#FFE9B3"/>
<path opacity="0.15" d="M427.89 232.955C426.849 232.367 425.639 232.151 424.458 232.344C423.875 232.453 423.344 232.754 422.95 233.198C422.556 233.642 422.321 234.205 422.282 234.797L420.388 234.686C420.168 234.663 419.947 234.674 419.731 234.718C419.474 234.799 419.255 234.972 419.118 235.204C418.981 235.436 418.935 235.711 418.988 235.975C419.057 236.236 419.222 236.461 419.45 236.606C419.678 236.751 419.951 236.805 420.217 236.758C419.285 237.129 418.454 237.715 417.791 238.468C417.296 239.215 417.116 240.127 417.288 241.006C417.46 241.885 417.972 242.661 418.711 243.165C419.488 243.613 420.402 243.762 421.281 243.584C422.16 243.406 422.943 242.913 423.485 242.198C423.374 242.59 423.406 243.009 423.575 243.38C423.743 243.751 424.037 244.05 424.406 244.225C427.969 246.152 429.784 243.534 430.271 240.501C430.777 237.205 431.487 234.732 427.89 232.955Z" fill="black"/>
<path d="M442.356 230.324C441.315 229.736 440.104 229.52 438.924 229.712C438.34 229.822 437.81 230.122 437.416 230.566C437.022 231.011 436.787 231.573 436.747 232.166L434.854 232.054C434.634 232.031 434.412 232.042 434.196 232.087C433.939 232.168 433.721 232.341 433.584 232.573C433.447 232.805 433.4 233.079 433.453 233.344C433.523 233.604 433.688 233.829 433.916 233.974C434.143 234.119 434.417 234.173 434.683 234.126C433.751 234.498 432.92 235.084 432.257 235.837C431.762 236.584 431.581 237.495 431.754 238.374C431.926 239.253 432.437 240.029 433.177 240.534C433.954 240.982 434.868 241.131 435.747 240.953C436.625 240.775 437.409 240.282 437.951 239.567C437.84 239.959 437.872 240.378 438.04 240.749C438.209 241.12 438.503 241.419 438.871 241.593C442.435 243.521 444.25 240.902 444.736 237.87C445.243 234.574 445.953 232.1 442.356 230.324Z" fill="#FFE9B3"/>
<path opacity="0.15" d="M442.356 230.324C441.315 229.736 440.104 229.52 438.924 229.712C438.34 229.822 437.81 230.122 437.416 230.566C437.022 231.011 436.787 231.573 436.747 232.166L434.854 232.054C434.634 232.031 434.412 232.042 434.196 232.087C433.939 232.168 433.721 232.341 433.584 232.573C433.447 232.805 433.4 233.079 433.453 233.344C433.523 233.604 433.688 233.829 433.916 233.974C434.143 234.119 434.417 234.173 434.683 234.126C433.751 234.498 432.92 235.084 432.257 235.837C431.762 236.584 431.581 237.495 431.754 238.374C431.926 239.253 432.437 240.029 433.177 240.534C433.954 240.982 434.868 241.131 435.747 240.953C436.625 240.775 437.409 240.282 437.951 239.567C437.84 239.959 437.872 240.378 438.04 240.749C438.209 241.12 438.503 241.419 438.871 241.593C442.435 243.521 444.25 240.902 444.736 237.87C445.243 234.574 445.953 232.1 442.356 230.324Z" fill="black"/>
<path d="M447.616 234.271C446.575 233.683 445.365 233.467 444.184 233.659C443.601 233.769 443.07 234.069 442.676 234.514C442.282 234.958 442.047 235.521 442.008 236.113L440.114 236.001C439.894 235.979 439.673 235.99 439.456 236.034C439.199 236.115 438.981 236.288 438.844 236.52C438.707 236.752 438.661 237.026 438.713 237.291C438.783 237.551 438.948 237.776 439.176 237.921C439.404 238.066 439.677 238.121 439.943 238.074C439.011 238.445 438.18 239.031 437.517 239.784C437.022 240.531 436.842 241.442 437.014 242.321C437.186 243.201 437.698 243.976 438.437 244.481C439.214 244.929 440.128 245.078 441.007 244.9C441.886 244.722 442.669 244.229 443.211 243.514C443.1 243.906 443.132 244.325 443.301 244.696C443.469 245.067 443.763 245.366 444.132 245.54C447.695 247.468 449.51 244.85 449.997 241.817C450.503 238.521 451.213 236.047 447.616 234.271Z" fill="#FFE9B3"/>
<path opacity="0.15" d="M447.616 234.271C446.575 233.683 445.365 233.467 444.184 233.659C443.601 233.769 443.07 234.069 442.676 234.514C442.282 234.958 442.047 235.521 442.008 236.113L440.114 236.001C439.894 235.979 439.673 235.99 439.456 236.034C439.199 236.115 438.981 236.288 438.844 236.52C438.707 236.752 438.661 237.026 438.713 237.291C438.783 237.551 438.948 237.776 439.176 237.921C439.404 238.066 439.677 238.121 439.943 238.074C439.011 238.445 438.18 239.031 437.517 239.784C437.022 240.531 436.842 241.442 437.014 242.321C437.186 243.201 437.698 243.976 438.437 244.481C439.214 244.929 440.128 245.078 441.007 244.9C441.886 244.722 442.669 244.229 443.211 243.514C443.1 243.906 443.132 244.325 443.301 244.696C443.469 245.067 443.763 245.366 444.132 245.54C447.695 247.468 449.51 244.85 449.997 241.817C450.503 238.521 451.213 236.047 447.616 234.271Z" fill="black"/>
<path d="M415.397 248.086C414.356 247.498 413.145 247.282 411.965 247.474C411.382 247.584 410.851 247.885 410.457 248.329C410.063 248.773 409.828 249.336 409.788 249.928L407.895 249.816C407.675 249.794 407.453 249.805 407.237 249.849C406.98 249.93 406.762 250.103 406.625 250.335C406.488 250.567 406.441 250.842 406.494 251.106C406.564 251.367 406.729 251.592 406.957 251.737C407.184 251.881 407.458 251.936 407.724 251.889C406.792 252.26 405.961 252.846 405.298 253.599C404.803 254.346 404.622 255.258 404.795 256.137C404.967 257.016 405.478 257.792 406.218 258.296C406.995 258.744 407.909 258.893 408.788 258.715C409.666 258.537 410.45 258.044 410.992 257.329C410.881 257.721 410.913 258.14 411.081 258.511C411.25 258.882 411.544 259.181 411.912 259.355C415.476 261.283 417.291 258.665 417.778 255.632C418.284 252.336 418.994 249.862 415.397 248.086Z" fill="#FFE9B3"/>
<path opacity="0.15" d="M415.397 248.086C414.356 247.498 413.145 247.282 411.965 247.474C411.382 247.584 410.851 247.885 410.457 248.329C410.063 248.773 409.828 249.336 409.788 249.928L407.895 249.816C407.675 249.794 407.453 249.805 407.237 249.849C406.98 249.93 406.762 250.103 406.625 250.335C406.488 250.567 406.441 250.842 406.494 251.106C406.564 251.367 406.729 251.592 406.957 251.737C407.184 251.881 407.458 251.936 407.724 251.889C406.792 252.26 405.961 252.846 405.298 253.599C404.803 254.346 404.622 255.258 404.795 256.137C404.967 257.016 405.478 257.792 406.218 258.296C406.995 258.744 407.909 258.893 408.788 258.715C409.666 258.537 410.45 258.044 410.992 257.329C410.881 257.721 410.913 258.14 411.081 258.511C411.25 258.882 411.544 259.181 411.912 259.355C415.476 261.283 417.291 258.665 417.778 255.632C418.284 252.336 418.994 249.862 415.397 248.086Z" fill="black"/>
<path d="M453.534 238.876C452.493 238.288 451.282 238.072 450.102 238.264C449.519 238.374 448.988 238.674 448.594 239.119C448.2 239.563 447.965 240.126 447.926 240.718L446.032 240.606C445.812 240.584 445.591 240.595 445.374 240.639C445.117 240.72 444.899 240.893 444.762 241.125C444.625 241.357 444.578 241.631 444.631 241.896C444.701 242.156 444.866 242.382 445.094 242.526C445.322 242.671 445.595 242.726 445.861 242.679C444.929 243.05 444.098 243.636 443.435 244.389C442.94 245.136 442.76 246.047 442.932 246.927C443.104 247.806 443.615 248.581 444.355 249.086C445.132 249.534 446.046 249.683 446.925 249.505C447.804 249.327 448.587 248.834 449.129 248.119C449.018 248.511 449.05 248.93 449.218 249.301C449.387 249.672 449.681 249.971 450.049 250.145C453.613 252.073 455.428 249.455 455.915 246.422C456.421 243.126 457.131 240.652 453.534 238.876Z" fill="#FFE9B3"/>
<path opacity="0.15" d="M453.534 238.876C452.493 238.288 451.282 238.072 450.102 238.264C449.519 238.374 448.988 238.674 448.594 239.119C448.2 239.563 447.965 240.126 447.926 240.718L446.032 240.606C445.812 240.584 445.591 240.595 445.374 240.639C445.117 240.72 444.899 240.893 444.762 241.125C444.625 241.357 444.578 241.631 444.631 241.896C444.701 242.156 444.866 242.382 445.094 242.526C445.322 242.671 445.595 242.726 445.861 242.679C444.929 243.05 444.098 243.636 443.435 244.389C442.94 245.136 442.76 246.047 442.932 246.927C443.104 247.806 443.615 248.581 444.355 249.086C445.132 249.534 446.046 249.683 446.925 249.505C447.804 249.327 448.587 248.834 449.129 248.119C449.018 248.511 449.05 248.93 449.218 249.301C449.387 249.672 449.681 249.971 450.049 250.145C453.613 252.073 455.428 249.455 455.915 246.422C456.421 243.126 457.131 240.652 453.534 238.876Z" fill="black"/>
<path d="M466.027 245.455C464.986 244.866 463.775 244.651 462.595 244.843C462.012 244.953 461.481 245.253 461.087 245.697C460.693 246.141 460.458 246.704 460.419 247.297L458.525 247.185C458.305 247.162 458.084 247.173 457.867 247.218C457.61 247.299 457.392 247.472 457.255 247.704C457.118 247.936 457.071 248.21 457.124 248.474C457.194 248.735 457.359 248.96 457.587 249.105C457.815 249.25 458.088 249.304 458.354 249.257C457.422 249.629 456.591 250.215 455.928 250.968C455.433 251.714 455.253 252.626 455.425 253.505C455.597 254.384 456.108 255.16 456.848 255.665C457.625 256.113 458.539 256.262 459.418 256.084C460.297 255.906 461.08 255.413 461.622 254.698C461.511 255.09 461.543 255.508 461.711 255.879C461.88 256.25 462.174 256.55 462.542 256.724C466.106 258.651 467.921 256.033 468.408 253C468.914 249.705 469.624 247.231 466.027 245.455Z" fill="#FFE9B3"/>
<path opacity="0.15" d="M466.027 245.455C464.986 244.866 463.775 244.651 462.595 244.843C462.012 244.953 461.481 245.253 461.087 245.697C460.693 246.141 460.458 246.704 460.419 247.297L458.525 247.185C458.305 247.162 458.084 247.173 457.867 247.218C457.61 247.299 457.392 247.472 457.255 247.704C457.118 247.936 457.071 248.21 457.124 248.474C457.194 248.735 457.359 248.96 457.587 249.105C457.815 249.25 458.088 249.304 458.354 249.257C457.422 249.629 456.591 250.215 455.928 250.968C455.433 251.714 455.253 252.626 455.425 253.505C455.597 254.384 456.108 255.16 456.848 255.665C457.625 256.113 458.539 256.262 459.418 256.084C460.297 255.906 461.08 255.413 461.622 254.698C461.511 255.09 461.543 255.508 461.711 255.879C461.88 256.25 462.174 256.55 462.542 256.724C466.106 258.651 467.921 256.033 468.408 253C468.914 249.705 469.624 247.231 466.027 245.455Z" fill="black"/>
<path d="M455.507 230.982C454.466 230.393 453.255 230.178 452.075 230.37C451.491 230.48 450.961 230.78 450.567 231.224C450.173 231.669 449.937 232.231 449.898 232.824L448.004 232.712C447.785 232.689 447.563 232.7 447.347 232.745C447.09 232.826 446.872 232.999 446.735 233.231C446.597 233.463 446.551 233.737 446.604 234.001C446.674 234.262 446.839 234.487 447.066 234.632C447.294 234.777 447.568 234.831 447.833 234.784C446.902 235.156 446.07 235.742 445.407 236.495C444.913 237.242 444.732 238.153 444.904 239.032C445.077 239.911 445.588 240.687 446.328 241.192C447.105 241.64 448.018 241.789 448.897 241.611C449.776 241.433 450.56 240.94 451.101 240.225C450.991 240.617 451.022 241.036 451.191 241.406C451.359 241.777 451.654 242.077 452.022 242.251C455.586 244.179 457.401 241.56 457.887 238.527C458.393 235.232 459.104 232.758 455.507 230.982Z" fill="#FFE9B3"/>
<path opacity="0.15" d="M455.507 230.982C454.466 230.393 453.255 230.178 452.075 230.37C451.491 230.48 450.961 230.78 450.567 231.224C450.173 231.669 449.937 232.231 449.898 232.824L448.004 232.712C447.785 232.689 447.563 232.7 447.347 232.745C447.09 232.826 446.872 232.999 446.735 233.231C446.597 233.463 446.551 233.737 446.604 234.001C446.674 234.262 446.839 234.487 447.066 234.632C447.294 234.777 447.568 234.831 447.833 234.784C446.902 235.156 446.07 235.742 445.407 236.495C444.913 237.242 444.732 238.153 444.904 239.032C445.077 239.911 445.588 240.687 446.328 241.192C447.105 241.64 448.018 241.789 448.897 241.611C449.776 241.433 450.56 240.94 451.101 240.225C450.991 240.617 451.022 241.036 451.191 241.406C451.359 241.777 451.654 242.077 452.022 242.251C455.586 244.179 457.401 241.56 457.887 238.527C458.393 235.232 459.104 232.758 455.507 230.982Z" fill="black"/>
<path d="M464.706 246.823C465.308 245.789 465.54 244.58 465.363 243.396C465.26 242.81 464.965 242.276 464.524 241.877C464.084 241.478 463.523 241.237 462.93 241.192L463.069 239.297C463.102 239.079 463.102 238.857 463.069 238.639C463.038 238.505 462.981 238.379 462.902 238.267C462.822 238.155 462.721 238.06 462.605 237.987C462.489 237.914 462.359 237.864 462.224 237.841C462.088 237.818 461.95 237.822 461.816 237.853C461.682 237.884 461.556 237.941 461.444 238.02C461.332 238.1 461.237 238.201 461.164 238.317C461.091 238.433 461.041 238.563 461.018 238.698C460.996 238.834 461 238.972 461.03 239.106C460.669 238.17 460.092 237.332 459.347 236.659C458.606 236.155 457.696 235.964 456.815 236.126C455.933 236.289 455.152 236.792 454.639 237.528C454.183 238.301 454.024 239.214 454.194 240.096C454.363 240.978 454.849 241.768 455.56 242.317C455.168 242.202 454.749 242.23 454.376 242.395C454.003 242.56 453.7 242.851 453.521 243.218C451.549 246.764 454.179 248.606 457.177 249.139C460.432 249.658 462.904 250.402 464.706 246.823Z" fill="#FFE9B3"/>
<path d="M464.706 236.297C465.308 235.263 465.54 234.054 465.363 232.87C465.26 232.284 464.965 231.75 464.524 231.351C464.084 230.952 463.523 230.711 462.93 230.666L463.069 228.771C463.102 228.553 463.102 228.332 463.069 228.114C463.007 227.843 462.84 227.608 462.605 227.461C462.37 227.313 462.086 227.265 461.816 227.327C461.546 227.389 461.311 227.556 461.164 227.791C461.016 228.026 460.968 228.31 461.03 228.581C460.669 227.644 460.092 226.806 459.347 226.133C458.606 225.629 457.696 225.438 456.815 225.6C455.933 225.763 455.152 226.266 454.639 227.002C454.183 227.775 454.024 228.689 454.194 229.571C454.363 230.453 454.849 231.242 455.56 231.791C455.168 231.677 454.749 231.704 454.376 231.869C454.003 232.034 453.7 232.326 453.521 232.692C451.549 236.238 454.179 238.08 457.177 238.613C460.432 239.133 462.904 239.876 464.706 236.297Z" fill="#FFE9B3"/>
<path d="M453.528 250.112C454.13 249.078 454.362 247.869 454.185 246.685C454.082 246.1 453.787 245.565 453.346 245.166C452.906 244.767 452.345 244.526 451.752 244.481L451.89 242.586C451.924 242.368 451.924 242.147 451.89 241.929C451.829 241.658 451.662 241.423 451.427 241.276C451.192 241.129 450.908 241.081 450.638 241.142C450.368 241.204 450.133 241.371 449.986 241.606C449.838 241.841 449.79 242.125 449.852 242.396C449.491 241.459 448.914 240.621 448.169 239.948C447.428 239.444 446.518 239.253 445.637 239.416C444.755 239.578 443.974 240.082 443.461 240.817C443.004 241.59 442.846 242.504 443.016 243.386C443.185 244.268 443.671 245.057 444.381 245.606C443.99 245.492 443.571 245.519 443.198 245.684C442.825 245.849 442.522 246.141 442.343 246.507C440.37 250.053 443.001 251.895 445.999 252.428C449.254 252.948 451.726 253.691 453.528 250.112Z" fill="#FFE9B3"/>
<path d="M466.021 261.954C466.623 260.92 466.855 259.711 466.678 258.526C466.575 257.941 466.28 257.407 465.839 257.008C465.399 256.609 464.838 256.368 464.246 256.323L464.384 254.428C464.417 254.21 464.417 253.988 464.384 253.77C464.322 253.5 464.155 253.265 463.92 253.118C463.685 252.97 463.401 252.922 463.131 252.984C462.861 253.046 462.626 253.213 462.479 253.448C462.331 253.683 462.283 253.967 462.345 254.237C461.984 253.301 461.407 252.462 460.662 251.79C459.921 251.286 459.011 251.095 458.13 251.257C457.248 251.42 456.467 251.923 455.954 252.658C455.498 253.432 455.339 254.345 455.509 255.227C455.678 256.109 456.164 256.899 456.875 257.448C456.483 257.333 456.064 257.361 455.691 257.526C455.318 257.691 455.015 257.982 454.836 258.349C452.864 261.895 455.494 263.737 458.492 264.27C461.747 264.789 464.219 265.533 466.021 261.954Z" fill="#FFE9B3"/>
<path d="M442.35 266.559C442.952 265.525 443.184 264.316 443.007 263.132C442.904 262.546 442.608 262.012 442.168 261.613C441.727 261.214 441.167 260.973 440.574 260.928L440.712 259.033C440.746 258.815 440.746 258.593 440.712 258.375C440.65 258.105 440.484 257.87 440.249 257.723C440.014 257.575 439.73 257.527 439.46 257.589C439.189 257.651 438.955 257.818 438.807 258.053C438.66 258.288 438.612 258.572 438.674 258.842C438.312 257.906 437.736 257.067 436.991 256.395C436.25 255.891 435.34 255.7 434.458 255.862C433.577 256.025 432.796 256.528 432.283 257.263C431.826 258.037 431.668 258.95 431.837 259.832C432.007 260.714 432.493 261.504 433.203 262.053C432.812 261.938 432.393 261.966 432.02 262.131C431.647 262.296 431.344 262.587 431.165 262.954C429.192 266.5 431.822 268.342 434.821 268.875C438.076 269.394 440.548 270.138 442.35 266.559Z" fill="#FFE9B3"/>
<path d="M437.089 239.587C437.692 238.552 437.924 237.343 437.747 236.159C437.643 235.574 437.348 235.039 436.908 234.64C436.467 234.241 435.906 234 435.314 233.955L435.452 232.061C435.485 231.843 435.485 231.621 435.452 231.403C435.39 231.132 435.223 230.898 434.988 230.75C434.754 230.603 434.47 230.555 434.199 230.617C433.929 230.679 433.695 230.845 433.547 231.08C433.4 231.315 433.352 231.599 433.414 231.87C433.052 230.933 432.476 230.095 431.73 229.423C430.989 228.919 430.079 228.727 429.198 228.89C428.317 229.052 427.535 229.556 427.022 230.291C426.566 231.064 426.408 231.978 426.577 232.86C426.747 233.742 427.232 234.531 427.943 235.08C427.552 234.966 427.132 234.994 426.759 235.159C426.386 235.323 426.084 235.615 425.905 235.982C423.932 239.527 426.562 241.369 429.561 241.902C432.815 242.422 435.288 243.165 437.089 239.587Z" fill="#FFE9B3"/>
<path d="M450.898 236.297C451.5 235.263 451.732 234.054 451.555 232.87C451.452 232.284 451.157 231.75 450.716 231.351C450.276 230.952 449.715 230.711 449.122 230.666L449.26 228.771C449.294 228.553 449.294 228.332 449.26 228.114C449.198 227.843 449.032 227.608 448.797 227.461C448.562 227.313 448.278 227.265 448.008 227.327C447.737 227.389 447.503 227.556 447.355 227.791C447.208 228.026 447.16 228.31 447.222 228.581C446.86 227.644 446.284 226.806 445.539 226.133C444.798 225.629 443.888 225.438 443.006 225.6C442.125 225.763 441.343 226.266 440.831 227.002C440.374 227.775 440.216 228.689 440.385 229.571C440.555 230.453 441.041 231.242 441.751 231.791C441.36 231.677 440.941 231.704 440.568 231.869C440.195 232.034 439.892 232.326 439.713 232.692C437.74 236.238 440.37 238.08 443.369 238.613C446.624 239.133 449.096 239.876 450.898 236.297Z" fill="#FFE9B3"/>
<path d="M423.281 248.797C423.884 247.762 424.116 246.553 423.939 245.369C423.835 244.784 423.54 244.249 423.1 243.85C422.659 243.451 422.098 243.21 421.506 243.165L421.644 241.271C421.677 241.053 421.677 240.831 421.644 240.613C421.582 240.342 421.415 240.108 421.18 239.96C420.945 239.813 420.662 239.765 420.391 239.827C420.121 239.889 419.886 240.056 419.739 240.291C419.592 240.526 419.544 240.81 419.606 241.08C419.244 240.143 418.667 239.305 417.922 238.633C417.181 238.129 416.271 237.937 415.39 238.1C414.509 238.262 413.727 238.766 413.214 239.501C412.758 240.274 412.599 241.188 412.769 242.07C412.939 242.952 413.424 243.742 414.135 244.29C413.743 244.176 413.324 244.204 412.951 244.369C412.578 244.534 412.275 244.825 412.096 245.192C410.124 248.737 412.754 250.579 415.752 251.112C419.007 251.632 421.479 252.375 423.281 248.797Z" fill="#FFE9B3"/>
<path d="M412.807 278.973C416.226 278.697 419.599 277.822 423.031 277.868C427.522 277.927 431.842 279.552 435.932 281.407C437.133 281.871 438.236 282.558 439.18 283.433C439.855 284.211 440.345 285.13 440.616 286.123C440.887 287.116 440.931 288.157 440.745 289.17C440.36 291.194 439.559 293.116 438.391 294.814C437.195 296.715 435.715 298.59 433.631 299.419C432.465 299.822 431.241 300.033 430.008 300.044C424.859 300.327 419.612 300.044 414.727 298.393C412.221 297.538 409.848 296.34 407.395 295.327C399.577 292.091 391.121 290.814 382.817 289.183C382.394 289.133 381.992 288.976 381.646 288.729C379.917 287.236 383.671 281.854 384.552 280.348C386.038 277.789 387.386 277.512 390.398 277.44C397.92 277.249 405.265 279.44 412.807 278.973Z" fill="#A0616A"/>
<path d="M471.307 297.176C468.927 296.005 466.79 294.386 464.43 293.169C461.457 291.64 458.189 290.771 454.849 290.623C452.686 290.525 450.332 290.814 448.761 292.308C446.518 294.439 446.788 298.064 447.524 301.07C448.642 305.577 450.891 310.346 455.211 312.05C456.908 312.618 458.682 312.922 460.471 312.951C468.473 313.504 476.804 314.004 484.221 310.978C484.765 310.808 485.231 310.452 485.536 309.971C485.859 309.313 485.536 308.524 485.208 307.859C484.024 305.478 482.15 300.485 479.862 298.998C477.731 297.571 473.964 298.478 471.307 297.176Z" fill="#A0616A"/>
<path opacity="0.1" d="M490.113 261.349C494.496 268.306 498.099 275.725 500.857 283.473C501.628 285.378 502.073 287.399 502.172 289.453C502.172 291.735 501.376 293.946 500.541 296.104C497.881 303.008 494.793 309.74 491.296 316.26C490.244 318.234 489.041 320.293 486.957 321.379C484.767 322.523 482.071 322.346 479.566 322.036C473.288 321.349 467.063 320.246 460.931 318.734C464.791 318.859 468.276 315.964 470.058 312.813C471.84 309.662 472.234 306.057 472.53 302.537C472.801 300.642 472.721 298.713 472.294 296.847C472.044 295.884 471.566 294.995 470.9 294.256C470.233 293.518 469.399 292.951 468.467 292.604C468.289 290.887 469.926 289.446 471.616 288.657C473.306 287.867 475.226 287.426 476.6 286.242C478.626 284.505 478.915 281.604 478.251 279.144C477.587 276.683 476.14 274.46 475.114 272.098C473.674 268.809 481.105 265.348 481.4 261.796C481.466 260.993 480.901 262.454 481.4 261.796C481.9 261.138 485.004 263.421 485.707 263.112C490.33 261.112 487.555 257.283 490.113 261.349Z" fill="black"/>
<path d="M491.546 261.349C495.929 268.307 499.534 275.726 502.297 283.473C503.071 285.377 503.516 287.399 503.612 289.453C503.612 291.735 502.817 293.946 501.988 296.104C499.325 303.007 496.237 309.739 492.743 316.26C491.691 318.234 490.488 320.293 488.403 321.379C486.214 322.523 483.511 322.346 481.013 322.036C474.733 321.351 468.505 320.247 462.372 318.734C466.225 318.859 469.716 315.964 471.492 312.813C473.267 309.662 473.675 306.057 473.971 302.537C474.238 300.642 474.158 298.714 473.734 296.847C473.482 295.885 473.003 294.997 472.337 294.259C471.671 293.52 470.838 292.953 469.907 292.604C469.723 290.887 471.367 289.446 473.057 288.657C474.746 287.867 476.666 287.426 478.041 286.242C480.059 284.505 480.349 281.604 479.684 279.144C479.02 276.683 477.574 274.46 476.548 272.098C475.113 268.804 474.512 265.207 474.799 261.625C474.813 260.806 475.054 260.006 475.496 259.316C475.986 258.729 476.617 258.276 477.331 258C481.973 256.027 488.989 257.283 491.546 261.349Z" fill="#F98A8D"/>
<path opacity="0.1" d="M350.992 254.823C346.724 258.77 342.319 262.941 340.241 268.381C339.11 271.348 338.735 274.545 338.367 277.703C337.749 283.084 337.19 288.847 339.682 293.65C342.444 298.913 348.23 301.735 353.661 304.123C355.54 305.005 357.486 305.736 359.481 306.307C362.094 306.892 364.759 307.218 367.437 307.281L394.849 308.807C391.272 305.202 388.984 299.557 389.471 294.498C389.911 289.979 392.101 285.834 394.304 281.881C395.448 279.841 396.743 277.697 398.854 276.69C389.923 274.715 380.74 274.138 371.632 274.98C371.02 275.032 370.317 275.052 369.916 274.565C369.716 274.26 369.623 273.896 369.653 273.532C369.653 269.447 372.704 266.052 373.966 262.171C375.985 255.948 369.113 259.362 362.933 257.224C356.752 255.086 352.254 248.402 350.992 254.823Z" fill="black"/>
<path d="M349.019 254.823C344.752 258.77 340.346 262.941 338.268 268.381C337.138 271.348 336.763 274.545 336.394 277.703C335.776 283.084 335.217 288.847 337.71 293.65C340.471 298.913 346.258 301.735 351.689 304.123C353.567 305.005 355.513 305.736 357.508 306.307C360.122 306.891 362.787 307.218 365.464 307.281L392.877 308.807C389.3 305.202 387.011 299.557 387.498 294.498C387.939 289.979 390.128 285.834 392.331 281.881C393.475 279.841 394.77 277.697 396.881 276.69C387.95 274.715 378.767 274.138 369.659 274.98C369.048 275.032 368.344 275.052 367.943 274.565C367.743 274.26 367.651 273.896 367.68 273.532C367.68 269.447 370.731 266.052 371.993 262.171C374.012 255.948 370.501 248.356 364.313 246.205C358.126 244.054 350.282 248.402 349.019 254.823Z" fill="#F98A8D"/>
<path d="M417.863 184.201C436.202 184.201 451.069 178.016 451.069 170.386C451.069 162.756 436.202 156.571 417.863 156.571C399.524 156.571 384.658 162.756 384.658 170.386C384.658 178.016 399.524 184.201 417.863 184.201Z" fill="#2F2E41"/>
<path opacity="0.1" d="M417.205 178.281C401.313 178.281 388.031 173.629 384.769 167.426C384.275 168.335 384.01 169.351 384 170.386C384 178.017 398.867 184.201 417.205 184.201C435.544 184.201 450.411 178.017 450.411 170.386C450.401 169.351 450.136 168.335 449.642 167.426C446.38 173.629 433.098 178.281 417.205 178.281Z" fill="black"/>
<path d="M462.082 179.669C461.041 179.08 459.83 178.864 458.65 179.057C458.066 179.166 457.536 179.467 457.142 179.911C456.748 180.355 456.513 180.918 456.473 181.511L454.58 181.399C454.36 181.376 454.138 181.387 453.922 181.432C453.665 181.512 453.447 181.685 453.31 181.917C453.173 182.149 453.126 182.424 453.179 182.688C453.249 182.949 453.414 183.174 453.642 183.319C453.869 183.464 454.143 183.518 454.409 183.471C453.477 183.843 452.646 184.429 451.982 185.181C451.488 185.928 451.307 186.84 451.48 187.719C451.652 188.598 452.163 189.374 452.903 189.879C453.68 190.327 454.594 190.476 455.472 190.298C456.351 190.12 457.135 189.627 457.677 188.912C457.566 189.304 457.598 189.722 457.766 190.093C457.935 190.464 458.229 190.763 458.597 190.938C462.161 192.865 463.976 190.247 464.462 187.214C464.969 183.918 465.679 181.445 462.082 179.669Z" fill="#FFE9B3"/>
<path opacity="0.15" d="M462.082 179.669C461.041 179.08 459.83 178.864 458.65 179.057C458.066 179.166 457.536 179.467 457.142 179.911C456.748 180.355 456.513 180.918 456.473 181.511L454.58 181.399C454.36 181.376 454.138 181.387 453.922 181.432C453.665 181.512 453.447 181.685 453.31 181.917C453.173 182.149 453.126 182.424 453.179 182.688C453.249 182.949 453.414 183.174 453.642 183.319C453.869 183.464 454.143 183.518 454.409 183.471C453.477 183.843 452.646 184.429 451.982 185.181C451.488 185.928 451.307 186.84 451.48 187.719C451.652 188.598 452.163 189.374 452.903 189.879C453.68 190.327 454.594 190.476 455.472 190.298C456.351 190.12 457.135 189.627 457.677 188.912C457.566 189.304 457.598 189.722 457.766 190.093C457.935 190.464 458.229 190.763 458.597 190.938C462.161 192.865 463.976 190.247 464.462 187.214C464.969 183.918 465.679 181.445 462.082 179.669Z" fill="black"/>
<path d="M493.644 229.666C492.602 229.078 491.392 228.862 490.211 229.054C489.628 229.164 489.098 229.464 488.704 229.909C488.31 230.353 488.074 230.915 488.035 231.508L486.141 231.396C485.922 231.373 485.7 231.385 485.484 231.429C485.227 231.51 485.009 231.683 484.872 231.915C484.734 232.147 484.688 232.421 484.741 232.686C484.811 232.946 484.976 233.171 485.203 233.316C485.431 233.461 485.705 233.516 485.97 233.469C485.039 233.84 484.207 234.426 483.544 235.179C483.05 235.926 482.869 236.837 483.041 237.716C483.214 238.595 483.725 239.371 484.465 239.876C485.242 240.324 486.155 240.473 487.034 240.295C487.913 240.117 488.697 239.624 489.238 238.909C489.128 239.301 489.159 239.72 489.328 240.091C489.496 240.462 489.791 240.761 490.159 240.935C493.723 242.863 495.537 240.244 496.024 237.212C496.53 233.916 497.24 231.442 493.644 229.666Z" fill="#FFE9B3"/>
<path opacity="0.15" d="M493.644 229.666C492.602 229.078 491.392 228.862 490.211 229.054C489.628 229.164 489.098 229.464 488.704 229.909C488.31 230.353 488.074 230.915 488.035 231.508L486.141 231.396C485.922 231.373 485.7 231.385 485.484 231.429C485.227 231.51 485.009 231.683 484.872 231.915C484.734 232.147 484.688 232.421 484.741 232.686C484.811 232.946 484.976 233.171 485.203 233.316C485.431 233.461 485.705 233.516 485.97 233.469C485.039 233.84 484.207 234.426 483.544 235.179C483.05 235.926 482.869 236.837 483.041 237.716C483.214 238.595 483.725 239.371 484.465 239.876C485.242 240.324 486.155 240.473 487.034 240.295C487.913 240.117 488.697 239.624 489.238 238.909C489.128 239.301 489.159 239.72 489.328 240.091C489.496 240.462 489.791 240.761 490.159 240.935C493.723 242.863 495.537 240.244 496.024 237.212C496.53 233.916 497.24 231.442 493.644 229.666Z" fill="black"/>
<path d="M530.466 282.953C529.424 282.364 528.214 282.149 527.033 282.341C526.45 282.451 525.92 282.751 525.526 283.195C525.132 283.64 524.896 284.202 524.857 284.795L522.963 284.683C522.744 284.66 522.522 284.671 522.306 284.716C522.049 284.797 521.831 284.97 521.694 285.202C521.556 285.434 521.51 285.708 521.563 285.972C521.633 286.233 521.798 286.458 522.025 286.603C522.253 286.748 522.527 286.802 522.792 286.755C521.86 287.127 521.029 287.713 520.366 288.466C519.872 289.213 519.691 290.124 519.863 291.003C520.035 291.882 520.547 292.658 521.287 293.163C522.063 293.611 522.977 293.76 523.856 293.582C524.735 293.404 525.519 292.911 526.06 292.196C525.95 292.588 525.981 293.007 526.15 293.377C526.318 293.748 526.613 294.048 526.981 294.222C530.545 296.15 532.359 293.531 532.846 290.499C533.352 287.203 534.062 284.729 530.466 282.953Z" fill="#FFE9B3"/>
<path opacity="0.15" d="M530.466 282.953C529.424 282.364 528.214 282.149 527.033 282.341C526.45 282.451 525.92 282.751 525.526 283.195C525.132 283.64 524.896 284.202 524.857 284.795L522.963 284.683C522.744 284.66 522.522 284.671 522.306 284.716C522.049 284.797 521.831 284.97 521.694 285.202C521.556 285.434 521.51 285.708 521.563 285.972C521.633 286.233 521.798 286.458 522.025 286.603C522.253 286.748 522.527 286.802 522.792 286.755C521.86 287.127 521.029 287.713 520.366 288.466C519.872 289.213 519.691 290.124 519.863 291.003C520.035 291.882 520.547 292.658 521.287 293.163C522.063 293.611 522.977 293.76 523.856 293.582C524.735 293.404 525.519 292.911 526.06 292.196C525.95 292.588 525.981 293.007 526.15 293.377C526.318 293.748 526.613 294.048 526.981 294.222C530.545 296.15 532.359 293.531 532.846 290.499C533.352 287.203 534.062 284.729 530.466 282.953Z" fill="black"/>
<path d="M473.911 165.248C474.514 164.214 474.746 163.005 474.569 161.821C474.465 161.235 474.17 160.701 473.73 160.302C473.289 159.903 472.728 159.662 472.136 159.617L472.274 157.722C472.307 157.504 472.307 157.282 472.274 157.064C472.212 156.794 472.045 156.559 471.81 156.412C471.576 156.264 471.292 156.216 471.021 156.278C470.751 156.34 470.516 156.507 470.369 156.742C470.222 156.977 470.174 157.261 470.236 157.532C469.874 156.595 469.298 155.757 468.552 155.084C467.811 154.58 466.901 154.389 466.02 154.551C465.139 154.714 464.357 155.217 463.844 155.953C463.388 156.726 463.23 157.64 463.399 158.522C463.569 159.403 464.054 160.193 464.765 160.742C464.374 160.628 463.954 160.655 463.581 160.82C463.208 160.985 462.906 161.277 462.727 161.643C460.754 165.189 463.384 167.031 466.382 167.564C469.637 168.084 472.11 168.827 473.911 165.248Z" fill="#FFE9B3"/>
<path d="M469.966 142.223C470.569 141.189 470.8 139.98 470.624 138.796C470.52 138.21 470.225 137.676 469.784 137.277C469.344 136.878 468.783 136.637 468.191 136.592L468.329 134.697C468.362 134.479 468.362 134.257 468.329 134.039C468.267 133.769 468.1 133.534 467.865 133.387C467.63 133.239 467.346 133.191 467.076 133.253C466.806 133.315 466.571 133.482 466.424 133.717C466.277 133.952 466.229 134.236 466.29 134.506C465.929 133.57 465.352 132.732 464.607 132.059C463.866 131.555 462.956 131.364 462.075 131.526C461.194 131.689 460.412 132.192 459.899 132.928C459.443 133.701 459.284 134.614 459.454 135.496C459.623 136.378 460.109 137.168 460.82 137.717C460.428 137.602 460.009 137.63 459.636 137.795C459.263 137.96 458.96 138.251 458.781 138.618C456.809 142.164 459.439 144.006 462.437 144.539C465.692 145.058 468.164 145.802 469.966 142.223Z" fill="#FFE9B3"/>
<path d="M371.342 331.635C370.301 331.046 369.09 330.83 367.91 331.023C367.327 331.132 366.796 331.433 366.402 331.877C366.008 332.321 365.773 332.884 365.734 333.477L363.84 333.365C363.622 333.331 363.4 333.331 363.182 333.365C362.925 333.446 362.707 333.619 362.57 333.851C362.433 334.083 362.386 334.357 362.439 334.621C362.509 334.882 362.674 335.107 362.902 335.252C363.13 335.397 363.403 335.451 363.669 335.404C362.737 335.776 361.906 336.362 361.243 337.115C360.748 337.861 360.568 338.773 360.74 339.652C360.912 340.531 361.424 341.307 362.163 341.812C362.94 342.26 363.854 342.409 364.733 342.231C365.612 342.053 366.395 341.56 366.937 340.845C366.826 341.237 366.858 341.655 367.027 342.026C367.195 342.397 367.489 342.697 367.858 342.871C371.421 344.798 373.236 342.213 373.723 339.147C374.229 335.884 374.939 333.411 371.342 331.635Z" fill="#FFE9B3"/>
<path opacity="0.15" d="M371.342 331.635C370.301 331.046 369.09 330.83 367.91 331.023C367.327 331.132 366.796 331.433 366.402 331.877C366.008 332.321 365.773 332.884 365.734 333.477L363.84 333.365C363.622 333.331 363.4 333.331 363.182 333.365C362.925 333.446 362.707 333.619 362.57 333.851C362.433 334.083 362.386 334.357 362.439 334.621C362.509 334.882 362.674 335.107 362.902 335.252C363.13 335.397 363.403 335.451 363.669 335.404C362.737 335.776 361.906 336.362 361.243 337.115C360.748 337.861 360.568 338.773 360.74 339.652C360.912 340.531 361.424 341.307 362.163 341.812C362.94 342.26 363.854 342.409 364.733 342.231C365.612 342.053 366.395 341.56 366.937 340.845C366.826 341.237 366.858 341.655 367.027 342.026C367.195 342.397 367.489 342.697 367.858 342.871C371.421 344.798 373.236 342.213 373.723 339.147C374.229 335.884 374.939 333.411 371.342 331.635Z" fill="black"/>
<path d="M347.665 330.372C348.267 329.337 348.499 328.128 348.322 326.944C348.219 326.359 347.924 325.824 347.483 325.425C347.043 325.026 346.482 324.785 345.889 324.74L346.027 322.846C346.061 322.628 346.061 322.406 346.027 322.188C345.966 321.917 345.799 321.683 345.564 321.535C345.329 321.388 345.045 321.34 344.775 321.402C344.505 321.464 344.27 321.63 344.123 321.865C343.975 322.1 343.927 322.384 343.989 322.655C343.628 321.718 343.051 320.88 342.306 320.208C341.565 319.704 340.655 319.512 339.774 319.675C338.892 319.837 338.111 320.341 337.598 321.076C337.141 321.849 336.983 322.763 337.153 323.645C337.322 324.527 337.808 325.316 338.518 325.865C338.127 325.751 337.708 325.779 337.335 325.944C336.962 326.108 336.659 326.4 336.48 326.766C334.507 330.312 337.138 332.154 340.136 332.687C343.391 333.207 345.863 333.95 347.665 330.372Z" fill="#FFE9B3"/>
<path d="M379.226 294.189C379.829 293.155 380.061 291.946 379.884 290.762C379.78 290.176 379.485 289.642 379.045 289.243C378.604 288.844 378.044 288.603 377.451 288.558L377.589 286.663C377.622 286.445 377.622 286.223 377.589 286.005C377.527 285.735 377.36 285.5 377.126 285.353C376.891 285.205 376.607 285.157 376.336 285.219C376.066 285.281 375.832 285.448 375.684 285.683C375.537 285.918 375.489 286.202 375.551 286.472C375.189 285.536 374.613 284.698 373.867 284.025C373.126 283.521 372.216 283.33 371.335 283.492C370.454 283.655 369.672 284.158 369.159 284.894C368.703 285.667 368.545 286.58 368.714 287.462C368.884 288.344 369.369 289.134 370.08 289.683C369.689 289.568 369.269 289.596 368.896 289.761C368.523 289.926 368.221 290.218 368.042 290.584C366.069 294.13 368.699 295.972 371.698 296.505C374.952 297.025 377.425 297.768 379.226 294.189Z" fill="#FFE9B3"/>
<path d="M328.708 306.136C322.303 304.498 315.636 302.847 309.166 304.162C306.286 304.748 303.564 305.906 300.763 306.794C293.865 308.932 286.575 309.489 279.433 308.421C272.291 307.354 265.481 304.691 259.509 300.63C252.802 295.992 245.832 289.229 237.889 291.064C235.752 291.564 233.773 292.683 231.59 292.926C227.494 293.393 223.7 290.735 219.636 290.11C212.64 289.038 206.282 293.946 200.903 298.551L172.544 322.832C170.393 324.674 168.026 327.109 168.598 329.872C169.473 333.931 175.687 334.477 177.284 338.325C178.442 341.082 176.528 344.292 173.997 345.864C171.465 347.436 168.401 347.838 165.561 348.792C161.269 350.23 157.422 352.755 154.394 356.121C151.366 359.487 149.26 363.58 148.281 368.001C147.781 370.356 147.623 372.804 146.696 375.027C145.696 377.448 143.888 379.435 142.553 381.685C136.715 391.487 140.548 404.493 136.116 415.005C133.769 420.584 129.067 425.979 130.553 431.84C131.908 437.156 137.74 439.873 143.047 441.28C143.671 444.899 142.389 447.451 139.759 450.05C161.819 459.122 185.497 468.384 208.899 463.746C216.927 462.161 224.745 458.944 232.925 459.076C238.731 459.168 244.471 460.957 250.264 460.549C262.488 459.687 273.712 449.234 285.554 452.372C281.984 452.615 280.662 457.839 282.766 460.74C284.87 463.641 288.743 464.569 292.307 464.911C295.871 465.253 299.645 465.279 302.735 467.095C300.394 471.97 292.011 473.674 292.82 479.035C293.116 480.969 294.681 482.436 296.232 483.64C312.178 495.857 334.139 494.686 354.095 496.797C368.811 498.337 383.237 501.935 397.907 503.856C421.341 506.915 445.098 505.665 468.69 504.402C472.971 504.172 477.771 503.698 480.526 500.409C484.182 496.028 482.15 489.535 481.69 483.851C479.901 461.608 504.217 446.3 511.029 425.051C513.659 416.755 513.547 407.841 513.074 399.138C512.015 379.507 508.945 358.798 496.438 343.641C486.141 331.141 470.748 324.102 455.421 318.944C445.663 315.655 435.439 312.951 425.175 313.918C407.947 315.543 390.542 327.312 374.637 320.497C370.428 318.694 366.845 315.714 362.847 313.491C352.34 307.55 340.419 309.129 328.708 306.136Z" fill="#F36E21"/>
<g opacity="0.1">
<path opacity="0.1" d="M417.672 486.725C403.003 484.804 388.603 481.226 373.861 479.667C353.885 477.575 331.923 478.746 315.998 466.509C314.446 465.319 312.881 463.878 312.585 461.904C311.776 456.556 320.16 454.839 322.501 449.964C319.41 448.148 315.643 448.129 312.072 447.78C308.502 447.431 304.636 446.51 302.531 443.609C300.427 440.708 301.749 435.485 305.319 435.241C293.484 432.103 282.253 442.557 270.03 443.418C264.237 443.826 258.496 442.037 252.69 441.945C244.511 441.813 236.693 445.03 228.664 446.616C205.262 451.221 181.591 442.011 159.524 432.919C162.122 430.288 163.417 427.768 162.812 424.15C157.519 422.742 151.687 420.025 150.319 414.709C148.833 408.848 153.534 403.453 155.882 397.875C160.313 387.349 156.48 374.356 162.319 364.554C163.634 362.304 165.462 360.317 166.461 357.896C167.375 355.673 167.546 353.226 168.046 350.87C168.262 349.839 168.547 348.824 168.901 347.831C167.796 348.134 166.678 348.41 165.613 348.765C161.321 350.204 157.474 352.729 154.446 356.095C151.419 359.461 149.313 363.554 148.333 367.975C147.833 370.33 147.676 372.777 146.748 375.001C145.749 377.422 143.941 379.409 142.606 381.658C136.767 391.461 140.601 404.466 136.169 414.979C133.821 420.558 129.12 425.952 130.606 431.814C131.961 437.129 137.793 439.846 143.099 441.254C143.724 444.872 142.442 447.425 139.812 450.023C161.878 459.095 185.55 468.358 208.951 463.72C216.98 462.135 224.798 458.918 232.978 459.049C238.784 459.141 244.524 460.931 250.317 460.523C262.54 459.661 273.764 449.208 285.607 452.346C282.036 452.589 280.715 457.812 282.819 460.714C284.923 463.615 288.796 464.542 292.359 464.884C295.923 465.227 299.698 465.253 302.788 467.069C300.447 471.943 292.064 473.647 292.872 479.009C293.168 480.943 294.733 482.41 296.285 483.614C312.23 495.83 334.192 494.659 354.148 496.771C368.864 498.31 383.29 501.909 397.959 503.83C421.394 506.889 445.151 505.639 468.743 504.376C473.024 504.146 477.824 503.672 480.579 500.383C483.439 496.949 482.814 492.225 482.19 487.6C460.649 488.719 439.022 489.515 417.672 486.725Z" fill="black"/>
<path opacity="0.1" d="M176.338 336.852C178.939 334.535 181.99 332.779 185.3 331.694C188.14 330.773 191.218 330.332 193.736 328.766C196.254 327.201 198.187 323.984 197.024 321.227C195.426 317.405 189.212 316.833 188.338 312.774C187.936 310.905 188.89 309.188 190.218 307.702L172.537 322.832C170.387 324.674 168.02 327.109 168.592 329.872C169.361 333.345 174.003 334.273 176.338 336.852Z" fill="black"/>
</g>
<path d="M235.884 323.793C236.486 322.758 236.718 321.549 236.541 320.365C236.438 319.78 236.143 319.246 235.702 318.847C235.262 318.448 234.701 318.207 234.109 318.162L234.247 316.267C234.269 316.047 234.258 315.825 234.214 315.609C234.152 315.339 233.985 315.104 233.75 314.956C233.515 314.809 233.231 314.761 232.961 314.823C232.691 314.885 232.456 315.052 232.309 315.287C232.161 315.522 232.113 315.806 232.175 316.076C231.814 315.14 231.237 314.301 230.492 313.629C229.751 313.125 228.841 312.933 227.96 313.096C227.079 313.259 226.297 313.762 225.784 314.497C225.328 315.271 225.169 316.184 225.339 317.066C225.508 317.948 225.994 318.738 226.705 319.287C226.313 319.172 225.894 319.2 225.521 319.365C225.148 319.53 224.845 319.821 224.666 320.188C222.694 323.734 225.324 325.576 228.322 326.109C231.61 326.628 234.082 327.372 235.884 323.793Z" fill="#FFE9B3"/>
<path d="M331.884 451.418C332.486 450.384 332.718 449.175 332.541 447.991C332.438 447.405 332.143 446.871 331.702 446.472C331.262 446.073 330.701 445.832 330.108 445.787L330.247 443.892C330.28 443.674 330.28 443.452 330.247 443.234C330.185 442.964 330.018 442.729 329.783 442.582C329.548 442.434 329.264 442.386 328.994 442.448C328.724 442.51 328.489 442.677 328.342 442.912C328.194 443.147 328.146 443.431 328.208 443.701C327.847 442.765 327.27 441.926 326.525 441.254C325.784 440.75 324.874 440.559 323.993 440.721C323.112 440.884 322.33 441.387 321.817 442.122C321.361 442.896 321.202 443.809 321.372 444.691C321.541 445.573 322.027 446.363 322.738 446.912C322.346 446.797 321.927 446.825 321.554 446.99C321.181 447.155 320.878 447.446 320.699 447.813C318.727 451.359 321.357 453.201 324.355 453.734C327.61 454.253 330.082 454.997 331.884 451.418Z" fill="#FFE9B3"/>
<path d="M397.637 325.767C398.24 324.732 398.472 323.523 398.295 322.339C398.191 321.754 397.896 321.219 397.456 320.82C397.015 320.421 396.454 320.18 395.862 320.135L396 318.241C396.033 318.023 396.033 317.801 396 317.583C395.938 317.312 395.771 317.078 395.536 316.93C395.302 316.783 395.018 316.735 394.747 316.797C394.477 316.859 394.242 317.025 394.095 317.26C393.948 317.495 393.9 317.779 393.962 318.05C393.6 317.113 393.024 316.275 392.278 315.603C391.537 315.099 390.627 314.907 389.746 315.07C388.865 315.232 388.083 315.736 387.57 316.471C387.114 317.244 386.956 318.158 387.125 319.04C387.295 319.922 387.78 320.711 388.491 321.26C388.1 321.146 387.68 321.174 387.307 321.338C386.934 321.503 386.632 321.795 386.453 322.161C384.48 325.707 387.11 327.549 390.109 328.082C393.363 328.602 395.836 329.345 397.637 325.767Z" fill="#FFE9B3"/>
<path d="M410.005 324.319C411.098 323.835 411.993 322.993 412.544 321.931C412.806 321.399 412.884 320.795 412.765 320.213C412.646 319.632 412.336 319.107 411.886 318.721L413.102 317.26C413.259 317.093 413.388 316.902 413.484 316.695C413.593 316.439 413.596 316.151 413.492 315.893C413.389 315.635 413.187 315.429 412.931 315.32C412.676 315.211 412.388 315.208 412.13 315.311C411.872 315.415 411.666 315.617 411.557 315.872C411.814 314.903 411.839 313.886 411.63 312.905C411.325 312.061 410.699 311.372 409.889 310.986C409.079 310.6 408.15 310.55 407.303 310.846C406.481 311.204 405.818 311.851 405.439 312.664C405.06 313.477 404.991 314.4 405.245 315.26C404.995 314.939 404.64 314.715 404.243 314.628C403.845 314.542 403.429 314.598 403.068 314.787C399.399 316.504 400.438 319.517 402.569 321.714C404.87 324.115 406.435 326.161 410.005 324.319Z" fill="#FFE9B3"/>
<path d="M267.452 327.687C266.411 327.099 265.2 326.883 264.02 327.076C263.436 327.185 262.906 327.486 262.512 327.93C262.118 328.374 261.883 328.937 261.843 329.529L259.95 329.418C259.732 329.384 259.51 329.384 259.292 329.418C259.035 329.498 258.817 329.671 258.68 329.903C258.543 330.135 258.496 330.41 258.549 330.674C258.619 330.935 258.784 331.16 259.012 331.305C259.239 331.45 259.513 331.504 259.779 331.457C258.847 331.829 258.016 332.415 257.352 333.167C256.858 333.914 256.677 334.826 256.85 335.705C257.022 336.584 257.533 337.36 258.273 337.865C259.05 338.313 259.963 338.462 260.842 338.284C261.721 338.106 262.505 337.613 263.047 336.898C262.936 337.29 262.968 337.708 263.136 338.079C263.305 338.45 263.599 338.749 263.967 338.924C267.531 340.851 269.346 338.266 269.832 335.2C270.339 331.937 271.049 329.464 267.452 327.687Z" fill="#FFE9B3"/>
<path opacity="0.15" d="M267.452 327.687C266.411 327.099 265.2 326.883 264.02 327.076C263.436 327.185 262.906 327.486 262.512 327.93C262.118 328.374 261.883 328.937 261.843 329.529L259.95 329.418C259.732 329.384 259.51 329.384 259.292 329.418C259.035 329.498 258.817 329.671 258.68 329.903C258.543 330.135 258.496 330.41 258.549 330.674C258.619 330.935 258.784 331.16 259.012 331.305C259.239 331.45 259.513 331.504 259.779 331.457C258.847 331.829 258.016 332.415 257.352 333.167C256.858 333.914 256.677 334.826 256.85 335.705C257.022 336.584 257.533 337.36 258.273 337.865C259.05 338.313 259.963 338.462 260.842 338.284C261.721 338.106 262.505 337.613 263.047 336.898C262.936 337.29 262.968 337.708 263.136 338.079C263.305 338.45 263.599 338.749 263.967 338.924C267.531 340.851 269.346 338.266 269.832 335.2C270.339 331.937 271.049 329.464 267.452 327.687Z" fill="black"/>
<path d="M325.999 376.626C326.201 375.448 326.002 374.236 325.433 373.185C325.135 372.67 324.674 372.269 324.123 372.046C323.571 371.824 322.961 371.791 322.389 371.955L321.863 370.126C321.811 369.894 321.722 369.672 321.6 369.468C321.448 369.235 321.21 369.072 320.938 369.015C320.666 368.957 320.383 369.011 320.15 369.162C319.917 369.314 319.754 369.552 319.697 369.824C319.64 370.096 319.693 370.38 319.844 370.613C319.185 369.855 318.356 369.264 317.425 368.889C316.555 368.673 315.635 368.808 314.863 369.264C314.092 369.721 313.531 370.463 313.302 371.33C313.14 372.213 313.306 373.125 313.768 373.894C314.231 374.663 314.958 375.237 315.814 375.507C315.407 375.535 315.023 375.705 314.73 375.988C314.436 376.27 314.252 376.648 314.209 377.053C313.552 381.06 316.655 381.895 319.673 381.343C322.961 380.744 325.525 380.573 325.999 376.626Z" fill="#FFE9B3"/>
<path opacity="0.15" d="M325.999 376.626C326.201 375.448 326.002 374.236 325.433 373.185C325.135 372.67 324.674 372.269 324.123 372.046C323.571 371.824 322.961 371.791 322.389 371.955L321.863 370.126C321.811 369.894 321.722 369.672 321.6 369.468C321.448 369.235 321.21 369.072 320.938 369.015C320.666 368.957 320.383 369.011 320.15 369.162C319.917 369.314 319.754 369.552 319.697 369.824C319.64 370.096 319.693 370.38 319.844 370.613C319.185 369.855 318.356 369.264 317.425 368.889C316.555 368.673 315.635 368.808 314.863 369.264C314.092 369.721 313.531 370.463 313.302 371.33C313.14 372.213 313.306 373.125 313.768 373.894C314.231 374.663 314.958 375.237 315.814 375.507C315.407 375.535 315.023 375.705 314.73 375.988C314.436 376.27 314.252 376.648 314.209 377.053C313.552 381.06 316.655 381.895 319.673 381.343C322.961 380.744 325.525 380.573 325.999 376.626Z" fill="black"/>
<path d="M404.903 316.76C405.105 315.583 404.906 314.371 404.338 313.32C404.04 312.805 403.578 312.404 403.027 312.181C402.475 311.958 401.865 311.926 401.293 312.09L400.767 310.261C400.715 310.029 400.626 309.807 400.504 309.603C400.429 309.488 400.332 309.388 400.218 309.31C400.105 309.233 399.977 309.178 399.843 309.149C399.708 309.121 399.569 309.119 399.434 309.145C399.298 309.17 399.17 309.222 399.054 309.297C398.939 309.372 398.84 309.469 398.762 309.583C398.684 309.696 398.629 309.824 398.601 309.959C398.573 310.094 398.571 310.233 398.596 310.368C398.622 310.503 398.673 310.632 398.748 310.748C398.089 309.99 397.26 309.399 396.329 309.024C395.459 308.808 394.539 308.942 393.767 309.399C392.996 309.856 392.435 310.598 392.206 311.465C392.044 312.348 392.21 313.259 392.672 314.028C393.135 314.798 393.862 315.371 394.718 315.642C394.311 315.669 393.927 315.839 393.634 316.122C393.34 316.405 393.156 316.783 393.113 317.188C392.456 321.194 395.559 322.03 398.578 321.477C401.865 320.879 404.43 320.708 404.903 316.76Z" fill="#FFE9B3"/>
<path opacity="0.15" d="M404.903 316.76C405.105 315.583 404.906 314.371 404.338 313.32C404.04 312.805 403.578 312.404 403.027 312.181C402.475 311.958 401.865 311.926 401.293 312.09L400.767 310.261C400.715 310.029 400.626 309.807 400.504 309.603C400.429 309.488 400.332 309.388 400.218 309.31C400.105 309.233 399.977 309.178 399.843 309.149C399.708 309.121 399.569 309.119 399.434 309.145C399.298 309.17 399.17 309.222 399.054 309.297C398.939 309.372 398.84 309.469 398.762 309.583C398.684 309.696 398.629 309.824 398.601 309.959C398.573 310.094 398.571 310.233 398.596 310.368C398.622 310.503 398.673 310.632 398.748 310.748C398.089 309.99 397.26 309.399 396.329 309.024C395.459 308.808 394.539 308.942 393.767 309.399C392.996 309.856 392.435 310.598 392.206 311.465C392.044 312.348 392.21 313.259 392.672 314.028C393.135 314.798 393.862 315.371 394.718 315.642C394.311 315.669 393.927 315.839 393.634 316.122C393.34 316.405 393.156 316.783 393.113 317.188C392.456 321.194 395.559 322.03 398.578 321.477C401.865 320.879 404.43 320.708 404.903 316.76Z" fill="black"/>
</svg>
