<svg width="98" height="174" viewBox="0 0 98 174" fill="none" xmlns="http://www.w3.org/2000/svg">
<path opacity="0.1" d="M48.7809 173.847C75.7218 173.847 97.5617 170.159 97.5617 165.609C97.5617 161.059 75.7218 157.37 48.7809 157.37C21.8399 157.37 0 161.059 0 165.609C0 170.159 21.8399 173.847 48.7809 173.847Z" fill="black"/>
<path d="M49.375 158.641L71.5623 127.594L49.3207 162.048L49.2629 165.611C47.7091 165.579 46.1715 165.509 44.6501 165.401L47.0199 119.64L47.0011 119.286L47.0421 119.219L47.2673 114.894L24.9363 80.3764L47.3327 111.655L47.3891 112.572L49.1793 77.9976L30.0595 42.3262L49.4111 71.9215L51.2579 0.238553L51.2652 0L51.2653 0.234818L50.9798 56.7642L69.982 34.3446L50.9002 61.6325L50.4122 92.5906L68.159 62.8729L50.3437 97.142L50.0726 114.356L75.828 72.9896L49.9749 120.362L49.375 158.641Z" fill="#3F3D56"/>
</svg>
